<?xml version="1.0" encoding="utf-8"?>
<!-- Generator: Adobe Illustrator 18.0.0, SVG Export Plug-In . SVG Version: 6.00 Build 0)  -->
<!DOCTYPE svg PUBLIC "-//W3C//DTD SVG 1.1//EN" "http://www.w3.org/Graphics/SVG/1.1/DTD/svg11.dtd">
<svg version="1.1" id="Layer_1" xmlns="http://www.w3.org/2000/svg" xmlns:xlink="http://www.w3.org/1999/xlink" x="0px" y="0px"
	 width="20px" height="37px" viewBox="0 0 20 37" enable-background="new 0 0 20 37" xml:space="preserve">
<path fill="#FFFFFF" d="M19.3,0l-4.8,0C9.1,0,5.6,3.6,5.6,9.1v4.2H0.8c-0.4,0-0.8,0.3-0.8,0.8v6.1c0,0.4,0.3,0.8,0.8,0.8h4.8v15.4
	c0,0.4,0.3,0.8,0.8,0.8h6.3c0.4,0,0.8-0.3,0.8-0.8V20.9H19c0.4,0,0.8-0.3,0.8-0.8l0-6.1c0-0.2-0.1-0.4-0.2-0.5
	c-0.1-0.1-0.3-0.2-0.5-0.2h-5.6V9.8c0-1.7,0.4-2.6,2.6-2.6l3.2,0c0.4,0,0.8-0.3,0.8-0.8V0.8C20,0.3,19.7,0,19.3,0L19.3,0z M19.3,0"
	/>
</svg>
