<?xml version="1.0" encoding="utf-8"?>
<!-- Generator: Adobe Illustrator 18.0.0, SVG Export Plug-In . SVG Version: 6.00 Build 0)  -->
<!DOCTYPE svg PUBLIC "-//W3C//DTD SVG 1.1//EN" "http://www.w3.org/Graphics/SVG/1.1/DTD/svg11.dtd">
<svg version="1.1" id="Layer_1" xmlns="http://www.w3.org/2000/svg" xmlns:xlink="http://www.w3.org/1999/xlink" x="0px" y="0px"
	 width="339.5px" height="45.3px" viewBox="0 0 339.5 45.3" enable-background="new 0 0 339.5 45.3" xml:space="preserve">
<g>
	<path fill="#898989" d="M25.2,12.4c-0.5,0.1-1,0.1-1.5,0.2c-0.5,0-1.1,0-1.7,0c-0.9,0-1.8-0.1-2.6-0.2c-0.9-0.1-1.8-0.3-2.7-0.6
		c0.1,0.5,0.2,1.2,0.3,2c0.1,0.8,0.2,1.6,0.2,2.5c0.1,0.9,0.1,1.8,0.2,2.7c0,0.9,0.1,1.8,0.1,2.6c0,2.6-0.2,5.2-0.5,7.6
		c-0.3,2.5-0.7,4.6-1,6.5c-0.4,1.9-0.8,3.4-1.1,4.5c-0.4,1.1-0.6,1.7-0.8,1.7c-0.1,0-0.2-0.2-0.2-0.5c-0.1-0.3-0.1-0.8-0.2-1.4
		c-0.1-0.6-0.3-1.2-0.5-2c-0.2-0.7-0.6-1.5-1-2.2c-0.4-0.8-1-1.5-1.7-2.2c-0.7-0.7-1.6-1.4-2.6-2c1.5-0.5,2.7-1.4,3.7-2.6
		c1-1.2,1.8-2.7,2.3-4.4c0.6-1.7,1-3.8,1.2-6c0.2-2.3,0.4-4.7,0.4-7.4c-0.8-0.2-1.4-0.5-1.9-0.7c-0.5-0.3-1-0.5-1.4-0.8
		c-0.5-0.2-1-0.4-1.6-0.6C9.7,9,8.9,8.9,7.8,8.9c-0.4,0-0.9,0-1.4,0.1C6,9.1,5.5,9.2,5.1,9.4c-0.4,0.2-0.7,0.4-1,0.7
		c-0.3,0.3-0.4,0.7-0.4,1.1c0,0.5,0.1,0.8,0.4,1c0.3,0.2,0.6,0.3,1,0.3c0.4,0,0.7-0.1,1.1-0.3c0.3-0.2,0.5-0.6,0.6-1.1
		c0.6,0.2,0.8,0.7,0.8,1.5c0,0.9-0.3,1.5-0.9,2s-1.3,0.7-2,0.7c-0.6,0-1.1-0.1-1.5-0.3c-0.4-0.2-0.8-0.4-1.1-0.8
		c-0.3-0.3-0.5-0.7-0.7-1.1c-0.1-0.4-0.2-0.8-0.2-1.2c0-0.7,0.2-1.3,0.6-1.9c0.4-0.5,0.9-1,1.5-1.3C4,8.4,4.8,8.1,5.6,7.9
		C6.4,7.8,7.2,7.7,8,7.7c1.2,0,2.4,0.1,3.5,0.3c1.1,0.2,2.3,0.4,3.5,0.7C15,8.2,15,7.8,14.9,7.6s-0.1-0.5-0.1-0.8
		c0-0.1,0-0.2,0.1-0.3c0.1-0.1,0.2-0.2,0.3-0.2c0.2,0,0.4,0.2,0.5,0.5c0.1,0.3,0.3,1,0.5,2.1C16.6,9,17,9,17.4,9c0.4,0,0.7,0,1.1,0
		c1.3,0,2.4-0.2,3.2-0.5c0.9-0.3,1.6-0.7,2.2-1c0.6-0.4,1.1-0.7,1.4-1C25.6,6.2,25.9,6,26,6c0.1,0,0.2,0,0.2,0.1
		c0.1,0.1,0.1,0.1,0.1,0.2c0,0.2-0.1,0.4-0.2,0.6c-0.1,0.2-0.3,0.5-0.5,0.8c-0.2,0.3-0.3,0.7-0.5,1.2c-0.1,0.5-0.2,1.1-0.2,1.8
		c0,0.2,0,0.5,0.1,0.8C25,11.8,25.1,12.1,25.2,12.4z"/>
	<path fill="#898989" d="M31,13.1c0-0.6-0.1-1-0.4-1.3c-0.3-0.3-0.6-0.5-0.9-0.6c-0.3-0.1-0.6-0.2-0.9-0.3c-0.3-0.1-0.4-0.2-0.4-0.3
		c0-0.2,0.2-0.3,0.6-0.3c0.4,0,0.9-0.2,1.6-0.6c0.5-0.3,0.9-0.5,1.1-0.8c0.3-0.2,0.5-0.5,0.6-0.6c0.1-0.2,0.3-0.3,0.4-0.4
		c0.1-0.1,0.2-0.2,0.4-0.2c0.2,0,0.4,0.2,0.4,0.6v11c0.3-0.5,0.6-0.9,1.1-1.2c0.5-0.3,1-0.5,1.5-0.7c0.5-0.2,1-0.3,1.5-0.4
		c0.5-0.1,0.9-0.1,1.3-0.1c0.5,0,1.1,0.1,1.8,0.2c0.7,0.2,1.3,0.4,1.8,0.8c0.6,0.4,1.1,0.8,1.4,1.4c0.4,0.6,0.6,1.3,0.6,2.2v10.1
		c0,0.6,0.1,1,0.4,1.3c0.3,0.3,0.6,0.5,0.9,0.6c0.3,0.1,0.6,0.2,0.9,0.3c0.3,0.1,0.4,0.2,0.4,0.3c0,0.2-0.2,0.3-0.6,0.4
		c-0.4,0-0.9,0.2-1.6,0.6c-0.5,0.3-0.9,0.5-1.1,0.8c-0.3,0.2-0.5,0.5-0.6,0.6c-0.1,0.2-0.3,0.3-0.4,0.4c-0.1,0.1-0.2,0.2-0.4,0.2
		c-0.2,0-0.4-0.2-0.4-0.6V22.3c0-0.5-0.1-1-0.4-1.3c-0.2-0.4-0.5-0.6-0.9-0.8c-0.3-0.2-0.7-0.3-1.1-0.4c-0.4-0.1-0.7-0.1-1-0.1
		c-0.3,0-0.7,0-1.1,0.1c-0.4,0.1-0.8,0.2-1.1,0.3s-0.6,0.3-0.9,0.6c-0.2,0.2-0.3,0.5-0.3,0.8c0,0.2,0.1,0.4,0.2,0.5
		c0.1,0.1,0.2,0.2,0.2,0.3c0,0.1-0.1,0.1-0.4,0.1c-0.3,0-0.6-0.1-1-0.2c-0.4-0.1-0.6-0.4-0.8-0.7v10.6c0,0.8,0.2,1.3,0.5,1.5
		c0.2,0.2,0.4,0.3,0.6,0.3c0.2,0.1,0.4,0.1,0.7,0.2c0.2,0,0.4,0.1,0.5,0.1c0.1,0.1,0.2,0.1,0.2,0.3c0,0.2-0.1,0.3-0.4,0.3h-6.9
		c-0.2,0-0.4-0.1-0.4-0.3c0-0.1,0.1-0.2,0.2-0.3c0.1-0.1,0.3-0.1,0.5-0.1c0.2,0,0.4-0.1,0.7-0.2s0.5-0.2,0.6-0.3
		c0.3-0.3,0.5-0.8,0.5-1.5V13.1z"/>
	<path fill="#898989" d="M65.1,31.9c0,0.7,0.2,1.3,0.5,1.5c0.2,0.2,0.4,0.3,0.6,0.3s0.5,0.1,0.7,0.2c0.2,0,0.4,0.1,0.5,0.1
		c0.1,0.1,0.2,0.1,0.2,0.3c0,0.2-0.1,0.3-0.4,0.3h-4.7v-2.1c-0.2,0.6-0.6,1.1-1.1,1.4c-0.5,0.4-1,0.6-1.5,0.8
		c-0.6,0.2-1.2,0.3-1.8,0.4s-1.2,0.1-1.8,0.1c-0.9,0-1.7-0.1-2.5-0.2c-0.8-0.2-1.5-0.4-2.1-0.8s-1.1-0.8-1.4-1.4
		c-0.3-0.6-0.5-1.3-0.5-2.2c0-1.4,0.5-2.4,1.4-3.3c0.9-0.8,2.1-1.4,3.5-1.8l7.2-2c0.2-0.1,0.4-0.2,0.5-0.3c0.1-0.1,0.1-0.3,0.1-0.5
		c0-1-0.5-1.8-1.4-2.3c-0.9-0.5-2.1-0.8-3.5-0.8c-1.2,0-2.1,0.2-2.9,0.5c-0.8,0.3-1.1,0.8-1.1,1.5c0,0.3,0,0.5,0.1,0.6
		c0.1,0.1,0.2,0.2,0.3,0.3c0.1,0.1,0.2,0.1,0.3,0.2c0.1,0.1,0.2,0.2,0.2,0.3c0,0.2-0.3,0.2-0.9,0.2c-0.8,0-1.4-0.2-1.8-0.5
		s-0.7-0.9-0.7-1.7c0-0.7,0.2-1.3,0.6-1.8c0.4-0.5,0.9-0.9,1.6-1.2c0.6-0.3,1.3-0.5,2.1-0.7s1.5-0.2,2.2-0.2c0.9,0,1.8,0.1,2.7,0.3
		c0.9,0.2,1.7,0.5,2.3,0.9c0.7,0.4,1.2,1,1.7,1.8c0.4,0.7,0.6,1.7,0.6,2.8V31.9z M62.6,25.5c0-0.1-0.1-0.1-0.2-0.1
		c-0.2,0-0.4,0-0.5,0.1l-7,2.2c-0.6,0.2-1.1,0.5-1.5,1c-0.4,0.5-0.6,1-0.6,1.6c0,0.8,0.3,1.4,0.9,1.8c0.6,0.4,1.5,0.6,2.6,0.6
		c0.5,0,1,0,1.5-0.1c0.5-0.1,0.9-0.2,1.3-0.3s0.7-0.4,1-0.7c0.3-0.3,0.4-0.6,0.4-1.1c0-0.2,0-0.4-0.1-0.5c-0.1-0.1-0.1-0.2-0.1-0.3
		c0-0.1,0.2-0.2,0.5-0.2c0.5,0,0.8,0.1,1.1,0.3c0.3,0.2,0.5,0.5,0.8,1v-2.8V25.5z"/>
	<path fill="#898989" d="M73.5,22.5c0-0.6-0.1-1-0.4-1.3c-0.3-0.3-0.6-0.5-0.9-0.6c-0.3-0.1-0.6-0.2-0.9-0.3
		c-0.3-0.1-0.4-0.2-0.4-0.3c0-0.1,0.1-0.2,0.2-0.2c0.1,0,0.3-0.1,0.4-0.1c0.2,0,0.4-0.1,0.7-0.2c0.3-0.1,0.6-0.2,0.9-0.4
		c0.5-0.3,0.9-0.5,1.1-0.8c0.3-0.3,0.5-0.5,0.6-0.7c0.1-0.2,0.3-0.3,0.4-0.4c0.1-0.1,0.2-0.2,0.4-0.2c0.2,0,0.4,0.2,0.4,0.6v1.7
		c0.3-0.5,0.6-0.9,1.1-1.2c0.5-0.3,1-0.5,1.5-0.7c0.5-0.2,1-0.3,1.5-0.4c0.5-0.1,0.9-0.1,1.3-0.1c0.5,0,1.1,0.1,1.8,0.2
		c0.7,0.2,1.3,0.4,1.8,0.8c0.6,0.4,1.1,0.8,1.4,1.4c0.4,0.6,0.6,1.3,0.6,2.2v10.1c0,0.6,0.1,1,0.4,1.3c0.3,0.3,0.6,0.5,0.9,0.6
		c0.3,0.1,0.6,0.2,0.9,0.3c0.3,0.1,0.4,0.2,0.4,0.3c0,0.2-0.2,0.3-0.6,0.4c-0.4,0-0.9,0.2-1.6,0.6c-0.5,0.3-0.9,0.5-1.1,0.8
		c-0.3,0.2-0.5,0.5-0.6,0.6c-0.1,0.2-0.3,0.3-0.4,0.4c-0.1,0.1-0.2,0.2-0.4,0.2c-0.2,0-0.4-0.2-0.4-0.6V22.3c0-0.5-0.1-1-0.4-1.3
		c-0.2-0.4-0.5-0.6-0.9-0.8c-0.3-0.2-0.7-0.3-1.1-0.4c-0.4-0.1-0.7-0.1-1-0.1c-0.3,0-0.7,0-1.1,0.1c-0.4,0.1-0.8,0.2-1.1,0.3
		s-0.6,0.3-0.9,0.6c-0.2,0.2-0.3,0.5-0.3,0.8c0,0.2,0.1,0.4,0.2,0.5C78,21.9,78,22,78,22.1c0,0.1-0.1,0.1-0.4,0.1
		c-0.3,0-0.6-0.1-1-0.2c-0.4-0.1-0.6-0.4-0.8-0.7v10.6c0,0.8,0.2,1.3,0.5,1.5c0.2,0.2,0.4,0.3,0.6,0.3c0.2,0.1,0.4,0.1,0.7,0.2
		c0.2,0,0.4,0.1,0.5,0.1c0.1,0.1,0.2,0.1,0.2,0.3c0,0.2-0.1,0.3-0.4,0.3h-6.9c-0.2,0-0.4-0.1-0.4-0.3c0-0.1,0.1-0.2,0.2-0.3
		c0.1-0.1,0.3-0.1,0.5-0.1c0.2,0,0.4-0.1,0.7-0.2s0.5-0.2,0.6-0.3c0.3-0.3,0.5-0.8,0.5-1.5V22.5z"/>
	<path fill="#898989" d="M101.3,24.6c1,0,1.8-0.3,2.4-0.9c0.6-0.6,1.1-1.7,1.5-3.1c0.4-1.1,0.9-2,1.5-2.5c0.6-0.6,1.6-0.9,2.8-0.9
		c0.2,0,0.2,0.1,0.2,0.4c0,0.1,0,0.3-0.1,0.6c-0.1,0.3-0.1,0.5-0.1,0.5v1.1c0,0.3,0.1,0.7,0.2,1.1c0.1,0.4,0.2,0.7,0.2,0.8
		c0,0.2-0.1,0.3-0.2,0.3c-0.1,0-0.2,0-0.3-0.1c-0.1-0.1-0.2-0.2-0.3-0.3s-0.3-0.2-0.4-0.3s-0.4-0.1-0.6-0.1c-0.5,0-0.9,0.2-1.2,0.5
		c-0.2,0.3-0.5,0.7-0.7,1.2c-0.2,0.4-0.5,0.9-0.8,1.3c-0.3,0.4-0.8,0.7-1.5,0.9c0.3,0.1,0.6,0.2,1,0.5c0.4,0.3,0.7,0.6,0.8,0.8
		c0.4,0.5,0.7,1.1,1,1.7c0.3,0.6,0.5,1.2,0.7,1.8c0.2,0.5,0.5,1,0.8,1.4c0.3,0.4,0.7,0.6,1.2,0.6c0.4,0,0.8-0.1,1-0.2
		c0.2-0.1,0.4-0.2,0.6-0.2c0.2,0,0.2,0.1,0.2,0.3c0,0.1-0.1,0.2-0.2,0.4c-0.2,0.1-0.3,0.3-0.6,0.4c-0.2,0.2-0.5,0.3-0.7,0.5
		c-0.3,0.2-0.5,0.4-0.7,0.6c-0.6,0.6-1,1.1-1.2,1.5s-0.4,0.6-0.6,0.6c-0.2,0-0.4-0.1-0.6-0.4c-0.2-0.3-0.5-0.6-0.7-1.1
		c-0.2-0.4-0.5-0.9-0.6-1.5c-0.2-0.6-0.3-1.2-0.4-1.7c-0.1-0.7-0.2-1.3-0.3-1.8s-0.3-1-0.5-1.3c-0.2-0.4-0.5-0.6-0.9-0.8
		c-0.4-0.2-0.9-0.3-1.6-0.3h-3.8v5.3c0,0.8,0.2,1.3,0.5,1.5c0.2,0.2,0.4,0.3,0.6,0.3c0.2,0.1,0.5,0.1,0.7,0.2s0.4,0.1,0.5,0.1
		c0.1,0.1,0.2,0.1,0.2,0.3c0,0.2-0.1,0.3-0.3,0.3h-6.9c-0.2,0-0.3-0.1-0.3-0.3c0-0.1,0.1-0.2,0.2-0.3c0.1-0.1,0.3-0.1,0.5-0.1
		c0.2,0,0.4-0.1,0.7-0.2s0.5-0.2,0.6-0.3c0.3-0.2,0.5-0.7,0.5-1.5V13.1c0-0.6-0.1-1-0.4-1.3c-0.3-0.3-0.6-0.5-0.9-0.6
		s-0.6-0.2-0.9-0.3c-0.3-0.1-0.4-0.2-0.4-0.3c0-0.2,0.2-0.3,0.6-0.3c0.4,0,0.9-0.2,1.6-0.6c0.5-0.3,0.9-0.5,1.1-0.8
		c0.3-0.2,0.5-0.5,0.6-0.6C96.9,8.1,97,8,97.1,7.8c0.1-0.1,0.2-0.2,0.4-0.2c0.2,0,0.4,0.2,0.4,0.6v16.3H101.3z"/>
	<path fill="#898989" d="M120.7,32.6c1,0,1.9,0,2.6-0.1c0.7-0.1,1.3-0.1,1.7-0.3c0.4-0.1,0.7-0.3,0.9-0.5c0.2-0.2,0.3-0.5,0.3-0.8
		c0-0.7-0.3-1.3-0.9-1.7c-0.6-0.5-1.3-0.9-2.2-1.2c-0.9-0.4-1.8-0.7-2.9-1.1c-1-0.3-2-0.7-2.9-1.2c-0.9-0.5-1.6-1-2.2-1.7
		c-0.6-0.7-0.9-1.5-0.9-2.5c0-0.7,0.2-1.3,0.6-1.9s1-1.1,1.7-1.5c0.7-0.4,1.6-0.7,2.5-0.9c1-0.2,2.1-0.3,3.2-0.3
		c0.6,0,1.2,0.1,1.6,0.2c0.4,0.1,0.8,0.3,1.2,0.4s0.7,0.3,1,0.4c0.3,0.1,0.7,0.2,1.1,0.2c0.2,0,0.3,0,0.5-0.1s0.2-0.1,0.3-0.2
		c0.1-0.1,0.2-0.1,0.2-0.2c0.1-0.1,0.2-0.1,0.3-0.1c0.2,0,0.3,0.1,0.3,0.3c0,0.1-0.2,0.4-0.5,0.8c-0.3,0.4-0.6,0.9-0.8,1.5
		c-0.2,0.4-0.3,0.7-0.4,1.1c-0.1,0.4-0.2,0.7-0.3,1c-0.1,0.3-0.2,0.5-0.3,0.7c-0.1,0.2-0.2,0.3-0.3,0.3c-0.1,0-0.3-0.2-0.4-0.6
		c-0.1-0.4-0.3-0.8-0.5-1.3s-0.6-0.9-1.1-1.3c-0.5-0.4-1.2-0.6-2.1-0.6c-1,0-1.9,0-2.6,0.1c-0.7,0.1-1.3,0.2-1.7,0.4
		c-0.4,0.2-0.8,0.4-0.9,0.8c-0.2,0.3-0.3,0.8-0.3,1.3c0,0.4,0.3,0.7,0.9,1c0.6,0.3,1.3,0.6,2.2,1c0.9,0.3,1.8,0.7,2.9,1.1
		c1,0.4,2,0.8,2.9,1.3c0.9,0.5,1.6,1.1,2.2,1.7c0.6,0.7,0.9,1.4,0.9,2.3c0,1.1-0.2,1.9-0.5,2.6c-0.3,0.6-0.8,1.1-1.5,1.4
		c-0.7,0.3-1.5,0.5-2.5,0.5c-1,0.1-2.2,0.1-3.6,0.1c-0.9,0-1.8-0.1-2.6-0.4c-0.8-0.3-1.5-0.7-2-1.2s-1-1-1.3-1.6s-0.5-1.2-0.5-1.8
		c0-0.6,0.2-1.1,0.5-1.6c0.3-0.4,0.8-0.6,1.3-0.6c0.1,0,0.2,0,0.4,0.1c0.2,0.1,0.3,0.1,0.3,0.2c0,0.2-0.1,0.3-0.3,0.4
		c-0.2,0.1-0.3,0.3-0.3,0.7c0,0.9,0.4,1.7,1.3,2.3C118.4,32.3,119.4,32.6,120.7,32.6z"/>
	<path fill="#898989" d="M149.9,19.7c0.8,0,1.6-0.2,2.5-0.6c0.9-0.4,1.7-0.9,2.4-1.6c0.2,0.9,0.5,1.6,0.9,2.2c0.4,0.6,0.9,1.2,1.6,2
		c-0.5,0.2-1,0.4-1.4,0.6c-0.5,0.1-1.1,0.2-2,0.2c-0.7,0-1.3-0.1-1.9-0.2c-0.6-0.2-1.3-0.3-2-0.6v10.1c0,0.6,0.1,1,0.4,1.3
		c0.3,0.3,0.6,0.5,0.9,0.6c0.3,0.1,0.6,0.2,0.9,0.3c0.3,0.1,0.4,0.2,0.4,0.3c0,0.2-0.2,0.3-0.6,0.4c-0.4,0-0.9,0.2-1.6,0.6
		c-0.5,0.3-0.9,0.5-1.1,0.8c-0.3,0.2-0.5,0.5-0.6,0.6c-0.1,0.2-0.3,0.3-0.4,0.4c-0.1,0.1-0.2,0.2-0.4,0.2c-0.2,0-0.3-0.2-0.3-0.6
		V20.8c-0.5-0.1-1-0.3-1.5-0.4c-0.5-0.1-0.9-0.2-1.4-0.2c-0.6,0-1.1,0.1-1.6,0.4c-0.5,0.3-0.8,0.8-0.8,1.6c0,0.3,0.1,0.6,0.3,0.8
		c0.2,0.3,0.5,0.4,0.8,0.4c0.7,0,1-0.3,1-0.9c0-0.1,0-0.1,0-0.2c0-0.1-0.1-0.2-0.2-0.2c0.1-0.1,0.3-0.2,0.6-0.2
		c0.2,0,0.4,0.1,0.7,0.4s0.4,0.6,0.4,1.1c0,0.9-0.3,1.5-0.9,2c-0.6,0.5-1.3,0.7-2.1,0.7c-1,0-1.8-0.3-2.4-0.9
		c-0.6-0.6-0.9-1.3-0.9-2.2c0-0.7,0.2-1.4,0.5-1.9c0.3-0.5,0.7-1,1.2-1.3s1-0.6,1.6-0.7c0.6-0.2,1.1-0.2,1.7-0.2
		c0.7,0,1.3,0,1.8,0.1c0.5,0.1,0.9,0.2,1.3,0.3v-2.8c0-1-0.1-1.7-0.3-2.2c-0.2-0.5-0.4-0.9-0.6-1.1s-0.4-0.4-0.6-0.5
		c-0.2-0.1-0.3-0.2-0.3-0.3c0-0.1,0.1-0.2,0.2-0.3c0.2-0.1,0.4-0.2,0.6-0.3c0.3-0.1,0.6-0.2,0.9-0.4c0.3-0.2,0.6-0.4,1-0.7
		c0.5-0.5,0.9-0.9,1.2-1.3c0.3-0.4,0.5-0.7,0.7-0.9c0.2-0.2,0.3-0.4,0.4-0.5s0.2-0.2,0.3-0.2c0.2,0,0.4,0.1,0.4,0.2
		s-0.1,0.4-0.3,0.8c-0.2,0.3-0.4,0.8-0.6,1.4c-0.2,0.6-0.4,1.3-0.5,2.2c-0.2,0.9-0.2,2-0.2,3.3V19.7z"/>
	<path fill="#898989" d="M159.6,25.6c0-0.9,0.2-1.8,0.5-2.8c0.3-1,0.8-1.9,1.5-2.8c0.7-0.9,1.5-1.6,2.5-2.1c1-0.6,2.2-0.8,3.5-0.8
		c1.3,0,2.5,0.3,3.5,0.8c1,0.6,1.8,1.3,2.5,2.1c0.7,0.9,1.2,1.8,1.5,2.8c0.3,1,0.5,1.9,0.5,2.8v1.1c0,0.9-0.2,1.8-0.5,2.8
		c-0.3,1-0.8,1.9-1.5,2.8c-0.7,0.9-1.5,1.6-2.5,2.1c-1,0.6-2.2,0.8-3.5,0.8c-1.3,0-2.5-0.3-3.5-0.8c-1-0.6-1.9-1.3-2.5-2.1
		c-0.7-0.9-1.2-1.8-1.5-2.8c-0.3-1-0.5-1.9-0.5-2.8V25.6z M162.1,26.5c0,0.8,0.1,1.6,0.4,2.3c0.3,0.7,0.6,1.4,1.1,1.9
		c0.5,0.6,1,1,1.7,1.3c0.7,0.3,1.5,0.5,2.3,0.5c0.9,0,1.6-0.2,2.3-0.5c0.7-0.3,1.3-0.8,1.7-1.3c0.5-0.6,0.8-1.2,1.1-1.9
		c0.3-0.7,0.4-1.5,0.4-2.3v-0.8c0-0.8-0.1-1.6-0.4-2.3c-0.3-0.7-0.6-1.4-1.1-1.9c-0.5-0.6-1-1-1.7-1.3c-0.7-0.3-1.4-0.5-2.3-0.5
		c-0.9,0-1.7,0.2-2.3,0.5s-1.3,0.8-1.7,1.3c-0.5,0.6-0.8,1.2-1.1,1.9c-0.3,0.7-0.4,1.5-0.4,2.3V26.5z"/>
	<path fill="#898989" d="M184,31.9c0,0.7,0.2,1.3,0.5,1.5c0.2,0.2,0.4,0.3,0.6,0.3s0.5,0.1,0.7,0.2c0.2,0,0.4,0.1,0.5,0.1
		c0.1,0.1,0.2,0.1,0.2,0.3c0,0.2-0.1,0.3-0.4,0.3h-6.9c-0.2,0-0.4-0.1-0.4-0.3c0-0.1,0.1-0.2,0.2-0.3c0.1-0.1,0.3-0.1,0.5-0.1
		s0.4-0.1,0.7-0.2c0.2-0.1,0.4-0.2,0.6-0.3c0.3-0.2,0.5-0.7,0.5-1.5v-9.4c0-0.6-0.1-1-0.4-1.3c-0.3-0.3-0.6-0.5-0.9-0.6
		c-0.3-0.1-0.6-0.2-0.9-0.3s-0.4-0.2-0.4-0.3c0-0.1,0.1-0.2,0.2-0.2c0.1,0,0.3-0.1,0.4-0.1s0.4-0.1,0.7-0.2s0.6-0.2,0.9-0.4
		c0.5-0.3,0.9-0.5,1.1-0.8c0.3-0.3,0.5-0.5,0.6-0.7c0.1-0.2,0.3-0.3,0.4-0.4c0.1-0.1,0.2-0.2,0.4-0.2c0.2,0,0.4,0.2,0.4,0.6v1.8
		c0.5-0.6,1.2-1.1,2-1.4c0.8-0.3,1.5-0.5,2.2-0.5h1.2c0.5,0,1,0,1.5,0.1c0.5,0.1,1,0.1,1.4,0.1c0.3,0,0.6-0.1,0.7-0.3
		c0.1-0.2,0.3-0.3,0.5-0.3c0.1,0,0.2,0,0.2,0.1s0.1,0.1,0.1,0.2c0,0.1,0,0.3-0.1,0.5l-1.2,6.4c-0.1,0.2-0.2,0.4-0.4,0.4
		c-0.1,0-0.1,0-0.3-0.1s-0.2-0.2-0.2-0.3v-0.7c0-0.9-0.4-1.7-1.1-2.4s-1.6-1-2.6-1c-0.5,0-1,0.1-1.5,0.3s-0.9,0.4-1.3,0.7
		s-0.6,0.6-0.9,0.9c-0.2,0.4-0.3,0.7-0.3,1.1V31.9z"/>
	<path fill="#898989" d="M206.8,22.5c0-0.6-0.1-1-0.4-1.3c-0.3-0.3-0.6-0.5-0.9-0.6c-0.3-0.1-0.6-0.2-0.9-0.3s-0.4-0.2-0.4-0.3
		c0-0.1,0.1-0.2,0.2-0.2c0.1,0,0.3-0.1,0.4-0.1s0.4-0.1,0.7-0.2s0.6-0.2,0.9-0.4c0.5-0.3,0.9-0.5,1.1-0.8c0.3-0.3,0.5-0.5,0.6-0.7
		s0.3-0.3,0.4-0.4c0.1-0.1,0.2-0.2,0.4-0.2c0.2,0,0.3,0.2,0.3,0.6v2.2c0.6-0.9,1.3-1.5,2.3-2c1-0.5,2-0.7,3-0.7
		c1.1,0,2.2,0.2,3.2,0.7c1,0.5,1.8,1.1,2.5,1.9c0.7,0.8,1.2,1.7,1.6,2.7c0.4,1,0.6,2.1,0.6,3.2v1.1c0,1.1-0.2,2.2-0.6,3.2
		s-0.9,1.9-1.6,2.7c-0.7,0.8-1.5,1.4-2.5,1.9c-1,0.5-2,0.7-3.2,0.7c-1,0-2-0.2-3-0.7s-1.8-1.1-2.3-2v3.4c0,1,0.1,1.7,0.3,2.2
		c0.2,0.5,0.4,0.9,0.6,1.1s0.4,0.4,0.6,0.5c0.2,0.1,0.3,0.2,0.3,0.3c0,0.1-0.1,0.2-0.2,0.3c-0.2,0.1-0.4,0.2-0.6,0.3
		c-0.3,0.1-0.6,0.2-0.9,0.4s-0.6,0.4-1,0.7c-0.5,0.5-0.9,0.9-1.2,1.3c-0.3,0.4-0.5,0.7-0.7,0.9s-0.3,0.4-0.4,0.5
		c-0.1,0.1-0.2,0.2-0.3,0.2c-0.2,0-0.4-0.1-0.4-0.2s0.1-0.4,0.2-0.8s0.3-0.8,0.5-1.4c0.2-0.6,0.4-1.3,0.6-2.2c0.2-0.9,0.3-2,0.3-3.3
		V22.5z M209.3,28.7c0.4-0.3,0.7-0.5,1.1-0.5c0.1,0,0.3,0,0.5,0.1c0.2,0.1,0.3,0.1,0.3,0.2c0,0.1,0,0.1-0.1,0.2
		c-0.1,0.1-0.1,0.1-0.2,0.2s-0.1,0.2-0.2,0.3c-0.1,0.1-0.1,0.3-0.1,0.6c0,0.3,0.1,0.6,0.3,0.9c0.2,0.3,0.5,0.6,0.9,0.9
		s0.8,0.5,1.2,0.7c0.4,0.2,0.9,0.3,1.3,0.3c0.9,0,1.6-0.2,2.3-0.5c0.7-0.3,1.3-0.8,1.7-1.3s0.8-1.2,1.1-1.9c0.3-0.7,0.4-1.5,0.4-2.3
		v-0.8c0-0.8-0.1-1.6-0.4-2.3c-0.3-0.7-0.6-1.4-1.1-1.9s-1-1-1.7-1.3c-0.7-0.3-1.4-0.5-2.3-0.5c-0.5,0-0.9,0.1-1.3,0.3
		c-0.4,0.2-0.8,0.4-1.2,0.7c-0.4,0.3-0.6,0.6-0.9,0.9c-0.2,0.3-0.3,0.7-0.3,1c0,0.5,0.1,0.7,0.3,0.9c0.2,0.1,0.3,0.2,0.3,0.3
		c0,0.1-0.1,0.2-0.3,0.2c-0.2,0.1-0.3,0.1-0.5,0.1c-0.4,0-0.7-0.2-1.1-0.5V28.7z"/>
	<path fill="#898989" d="M228.2,13.1c0-0.6-0.1-1-0.4-1.3c-0.3-0.3-0.6-0.5-0.9-0.6c-0.3-0.1-0.6-0.2-0.9-0.3s-0.4-0.2-0.4-0.3
		c0-0.2,0.2-0.3,0.6-0.3c0.4,0,0.9-0.2,1.6-0.6c0.5-0.3,0.9-0.5,1.1-0.8c0.3-0.2,0.5-0.5,0.6-0.6c0.1-0.2,0.3-0.3,0.4-0.4
		c0.1-0.1,0.2-0.2,0.4-0.2c0.2,0,0.4,0.2,0.4,0.6v23.6c0,0.8,0.2,1.3,0.5,1.5c0.2,0.2,0.4,0.3,0.6,0.3s0.4,0.1,0.7,0.2
		c0.2,0,0.4,0.1,0.5,0.1c0.1,0.1,0.2,0.1,0.2,0.3c0,0.2-0.1,0.3-0.4,0.3h-6.9c-0.2,0-0.4-0.1-0.4-0.3c0-0.1,0.1-0.2,0.2-0.3
		c0.1-0.1,0.3-0.1,0.5-0.1s0.4-0.1,0.7-0.2s0.5-0.2,0.6-0.3c0.3-0.3,0.5-0.8,0.5-1.5V13.1z"/>
	<path fill="#898989" d="M251.2,31.9c0,0.7,0.2,1.3,0.5,1.5c0.2,0.2,0.4,0.3,0.6,0.3s0.5,0.1,0.7,0.2c0.2,0,0.4,0.1,0.5,0.1
		c0.1,0.1,0.2,0.1,0.2,0.3c0,0.2-0.1,0.3-0.4,0.3h-4.7v-2.1c-0.2,0.6-0.6,1.1-1.1,1.4c-0.5,0.4-1,0.6-1.5,0.8s-1.2,0.3-1.8,0.4
		c-0.6,0.1-1.2,0.1-1.8,0.1c-0.9,0-1.7-0.1-2.5-0.2s-1.5-0.4-2.1-0.8c-0.6-0.4-1.1-0.8-1.4-1.4s-0.5-1.3-0.5-2.2
		c0-1.4,0.5-2.4,1.4-3.3c0.9-0.8,2.1-1.4,3.5-1.8l7.2-2c0.2-0.1,0.4-0.2,0.5-0.3s0.1-0.3,0.1-0.5c0-1-0.5-1.8-1.4-2.3
		s-2.1-0.8-3.5-0.8c-1.2,0-2.1,0.2-2.9,0.5c-0.8,0.3-1.1,0.8-1.1,1.5c0,0.3,0,0.5,0.1,0.6c0.1,0.1,0.2,0.2,0.3,0.3
		c0.1,0.1,0.2,0.1,0.3,0.2s0.2,0.2,0.2,0.3c0,0.2-0.3,0.2-0.9,0.2c-0.8,0-1.4-0.2-1.8-0.5c-0.4-0.4-0.7-0.9-0.7-1.7
		c0-0.7,0.2-1.3,0.6-1.8c0.4-0.5,0.9-0.9,1.6-1.2c0.6-0.3,1.3-0.5,2.1-0.7c0.8-0.1,1.5-0.2,2.2-0.2c0.9,0,1.8,0.1,2.7,0.3
		c0.9,0.2,1.7,0.5,2.3,0.9c0.7,0.4,1.2,1,1.7,1.8c0.4,0.7,0.6,1.7,0.6,2.8V31.9z M248.8,25.5c0-0.1-0.1-0.1-0.2-0.1
		c-0.2,0-0.4,0-0.5,0.1l-7,2.2c-0.6,0.2-1.1,0.5-1.5,1c-0.4,0.5-0.6,1-0.6,1.6c0,0.8,0.3,1.4,0.9,1.8c0.6,0.4,1.5,0.6,2.6,0.6
		c0.5,0,1,0,1.5-0.1c0.5-0.1,0.9-0.2,1.3-0.3s0.7-0.4,1-0.7s0.4-0.6,0.4-1.1c0-0.2,0-0.4-0.1-0.5s-0.1-0.2-0.1-0.3
		c0-0.1,0.2-0.2,0.5-0.2c0.5,0,0.8,0.1,1.1,0.3c0.3,0.2,0.5,0.5,0.8,1v-2.8V25.5z"/>
	<path fill="#898989" d="M260.1,21.1c-0.4-0.9-0.7-1.6-0.9-1.9c-0.3-0.3-0.5-0.6-0.8-0.7c-0.3-0.2-0.6-0.2-1-0.3
		c-0.3,0-0.5-0.1-0.5-0.4c0-0.2,0.1-0.2,0.4-0.2h6.2c0.3,0,0.5,0.1,0.5,0.3c0,0.2-0.1,0.3-0.3,0.3s-0.4,0.1-0.6,0.2
		c-0.2,0.1-0.4,0.2-0.6,0.3c-0.2,0.1-0.3,0.3-0.3,0.6c0,0.1,0,0.3,0.1,0.4s0.1,0.4,0.3,0.8l4,10.6l3.9-10.6c0.1-0.4,0.2-0.7,0.3-0.8
		s0.1-0.3,0.1-0.4c0-0.3-0.1-0.5-0.3-0.6s-0.4-0.2-0.6-0.3c-0.2-0.1-0.4-0.1-0.6-0.2s-0.3-0.1-0.3-0.3c0-0.2,0.2-0.3,0.5-0.3h6.1
		c0.2,0,0.4,0.1,0.4,0.2c0,0.2-0.2,0.4-0.5,0.4c-0.3,0-0.7,0.1-1,0.3c-0.3,0.1-0.6,0.4-0.8,0.7c-0.3,0.3-0.6,1-0.9,1.9l-5,13.4v5.4
		c0,0.6-0.1,1.1-0.3,1.7c-0.2,0.5-0.4,1-0.8,1.5c-0.4,0.4-0.8,0.8-1.4,1c-0.6,0.3-1.2,0.4-2,0.4c-0.3,0-0.7,0-1-0.1
		c-0.3-0.1-0.7-0.2-1-0.4c-1.3-0.6-1.9-1.1-1.9-1.4c0-0.1,0.1-0.2,0.4-0.3s0.5-0.3,0.8-0.6c0.2-0.2,0.4-0.5,0.6-0.8s0.3-0.4,0.3-0.4
		c0.1,0,0.2,0.1,0.2,0.2c0.1,0.1,0.2,0.3,0.3,0.5c0.1,0.2,0.3,0.3,0.5,0.5c0.2,0.1,0.5,0.2,0.9,0.2c0.5,0,1-0.2,1.3-0.5
		s0.5-0.9,0.5-1.6v-5.2L260.1,21.1z"/>
	<path fill="#898989" d="M281.4,22.5c0-0.6-0.1-1-0.4-1.3c-0.3-0.3-0.6-0.5-0.9-0.6c-0.3-0.1-0.6-0.2-0.9-0.3s-0.4-0.2-0.4-0.3
		c0-0.1,0.1-0.2,0.2-0.2c0.1,0,0.3-0.1,0.4-0.1s0.4-0.1,0.7-0.2s0.6-0.2,0.9-0.4c0.5-0.3,0.9-0.5,1.1-0.8c0.3-0.3,0.5-0.5,0.6-0.7
		c0.1-0.2,0.3-0.3,0.4-0.4c0.1-0.1,0.2-0.2,0.4-0.2c0.2,0,0.4,0.2,0.4,0.6v14.3c0,0.8,0.2,1.3,0.5,1.5c0.2,0.2,0.4,0.3,0.6,0.3
		s0.4,0.1,0.7,0.2c0.2,0,0.4,0.1,0.5,0.1c0.1,0.1,0.2,0.1,0.2,0.3c0,0.2-0.1,0.3-0.4,0.3h-6.9c-0.2,0-0.4-0.1-0.4-0.3
		c0-0.1,0.1-0.2,0.2-0.3c0.1-0.1,0.3-0.1,0.5-0.1s0.4-0.1,0.7-0.2s0.5-0.2,0.6-0.3c0.3-0.3,0.5-0.8,0.5-1.5V22.5z M280.5,14
		c0-0.5,0.2-0.8,0.5-1.2s0.7-0.5,1.2-0.5c0.5,0,0.8,0.2,1.2,0.5c0.3,0.3,0.5,0.7,0.5,1.2c0,0.5-0.2,0.8-0.5,1.2
		c-0.3,0.3-0.7,0.5-1.2,0.5c-0.5,0-0.8-0.2-1.2-0.5C280.6,14.9,280.5,14.5,280.5,14z"/>
	<path fill="#898989" d="M292.1,22.5c0-0.6-0.1-1-0.4-1.3c-0.3-0.3-0.6-0.5-0.9-0.6c-0.3-0.1-0.6-0.2-0.9-0.3s-0.4-0.2-0.4-0.3
		c0-0.1,0.1-0.2,0.2-0.2c0.1,0,0.3-0.1,0.4-0.1s0.4-0.1,0.7-0.2s0.6-0.2,0.9-0.4c0.5-0.3,0.9-0.5,1.1-0.8c0.3-0.3,0.5-0.5,0.6-0.7
		c0.1-0.2,0.3-0.3,0.4-0.4c0.1-0.1,0.2-0.2,0.4-0.2c0.2,0,0.4,0.2,0.4,0.6v1.7c0.3-0.5,0.6-0.9,1.1-1.2s1-0.5,1.5-0.7
		c0.5-0.2,1-0.3,1.5-0.4s0.9-0.1,1.3-0.1c0.5,0,1.1,0.1,1.8,0.2c0.7,0.2,1.3,0.4,1.8,0.8c0.6,0.4,1.1,0.8,1.4,1.4
		c0.4,0.6,0.6,1.3,0.6,2.2v10.1c0,0.6,0.1,1,0.4,1.3c0.3,0.3,0.6,0.5,0.9,0.6c0.3,0.1,0.6,0.2,0.9,0.3c0.3,0.1,0.4,0.2,0.4,0.3
		c0,0.2-0.2,0.3-0.6,0.4c-0.4,0-0.9,0.2-1.6,0.6c-0.5,0.3-0.9,0.5-1.1,0.8s-0.5,0.5-0.6,0.6s-0.3,0.3-0.4,0.4s-0.2,0.2-0.4,0.2
		c-0.2,0-0.4-0.2-0.4-0.6V22.3c0-0.5-0.1-1-0.4-1.3c-0.2-0.4-0.5-0.6-0.9-0.8s-0.7-0.3-1.1-0.4c-0.4-0.1-0.7-0.1-1-0.1
		c-0.3,0-0.7,0-1.1,0.1c-0.4,0.1-0.8,0.2-1.1,0.3s-0.6,0.3-0.9,0.6s-0.3,0.5-0.3,0.8c0,0.2,0.1,0.4,0.2,0.5c0.1,0.1,0.2,0.2,0.2,0.3
		c0,0.1-0.1,0.1-0.4,0.1c-0.3,0-0.6-0.1-1-0.2c-0.4-0.1-0.6-0.4-0.8-0.7v10.6c0,0.8,0.2,1.3,0.5,1.5c0.2,0.2,0.4,0.3,0.6,0.3
		s0.4,0.1,0.7,0.2c0.2,0,0.4,0.1,0.5,0.1c0.1,0.1,0.2,0.1,0.2,0.3c0,0.2-0.1,0.3-0.4,0.3h-6.9c-0.2,0-0.4-0.1-0.4-0.3
		c0-0.1,0.1-0.2,0.2-0.3c0.1-0.1,0.3-0.1,0.5-0.1s0.4-0.1,0.7-0.2s0.5-0.2,0.6-0.3c0.3-0.3,0.5-0.8,0.5-1.5V22.5z"/>
	<path fill="#898989" d="M311.2,25.6c0-1.2,0.2-2.4,0.7-3.4c0.5-1.1,1.1-2,1.8-2.7c0.7-0.8,1.6-1.4,2.6-1.8c1-0.4,2-0.6,3-0.6
		c0.2,0,0.6,0,1.2,0.1c0.5,0.1,1.1,0.1,1.7,0.2c0.6,0.1,1.1,0.2,1.6,0.2c0.5,0.1,0.9,0.1,1,0.1c0.4,0,0.9,0,1.3-0.1
		c0.4-0.1,0.8-0.3,1.2-0.5c-0.2,0.6-0.5,1.2-0.9,1.7c-0.4,0.5-0.9,0.8-1.7,0.8c0.4,0.4,0.8,0.9,1.1,1.5c0.3,0.6,0.6,1.2,0.8,1.8
		c0.2,0.6,0.4,1.2,0.5,1.8c0.1,0.6,0.2,1.2,0.2,1.6c0,1-0.1,1.9-0.4,2.8c-0.3,0.9-0.6,1.6-1,2.3c-0.4,0.7-0.8,1.2-1.2,1.6
		c-0.4,0.4-0.8,0.7-1,0.9c0.7,0.3,1.3,0.7,1.8,1c0.5,0.3,0.8,0.7,1.1,1.2c0.3,0.5,0.5,1,0.6,1.7c0.1,0.7,0.2,1.5,0.2,2.5
		c0,0.5-0.1,1-0.3,1.5c-0.2,0.5-0.6,1.1-1.2,1.5c-0.6,0.5-1.4,0.9-2.4,1.2s-2.4,0.5-4.1,0.5c-1.7,0-3-0.1-4-0.2
		c-1-0.1-1.9-0.4-2.5-0.6c-0.6-0.3-1-0.6-1.2-1.1s-0.3-1-0.3-1.5c0-0.7,0.1-1.4,0.3-1.8s0.5-0.8,0.8-1.1c0.3-0.3,0.7-0.4,1.1-0.5
		c0.4-0.1,0.8-0.1,1.2-0.1c0.3,0,0.6,0.1,0.9,0.4s0.5,0.6,0.5,1c0,0.3,0,0.5-0.1,0.7c-0.1,0.1-0.2,0.2-0.4,0.2c-0.1,0-0.2,0-0.2-0.1
		s-0.1-0.2-0.1-0.3c-0.1-0.1-0.2-0.2-0.3-0.3c-0.1-0.1-0.3-0.1-0.6-0.1c-0.3,0-0.6,0.1-0.8,0.4c-0.2,0.3-0.3,0.7-0.3,1.1
		c0,0.7,0.5,1.1,1.5,1.3s2.5,0.2,4.6,0.2c1.2,0,2.1-0.1,2.8-0.2c0.7-0.1,1.3-0.4,1.7-0.6c0.4-0.3,0.6-0.6,0.8-1
		c0.1-0.4,0.2-0.8,0.2-1.3c0-0.5-0.1-1-0.4-1.5s-0.7-0.9-1.2-1.3s-1.2-0.7-1.9-0.9c-0.7-0.2-1.6-0.3-2.5-0.3c-1.3,0-2.3-0.3-3.3-0.8
		c-0.9-0.5-1.7-1.2-2.3-2c-0.6-0.8-1.1-1.7-1.4-2.8c-0.3-1-0.5-2-0.5-3V25.6z M324.7,25.7c0-0.8-0.1-1.6-0.4-2.3
		c-0.3-0.7-0.6-1.4-1.1-1.9c-0.5-0.6-1-1-1.7-1.3s-1.4-0.5-2.3-0.5c-0.9,0-1.6,0.2-2.3,0.5c-0.7,0.3-1.3,0.8-1.7,1.3
		c-0.5,0.6-0.8,1.2-1.1,1.9c-0.3,0.7-0.4,1.5-0.4,2.3v0.8c0,0.9,0.1,1.7,0.3,2.4c0.2,0.7,0.5,1.4,1,1.9s1,1,1.7,1.3
		c0.7,0.3,1.5,0.5,2.6,0.5c0.9,0,1.6-0.2,2.3-0.5c0.7-0.3,1.3-0.8,1.7-1.3c0.5-0.6,0.8-1.2,1.1-1.9c0.3-0.7,0.4-1.5,0.4-2.3V25.7z"
		/>
	<path fill="#898989" d="M333.8,29.3c0-2.1-0.1-4-0.2-5.7c-0.1-1.7-0.3-3.3-0.6-4.6c-0.3-1.4-0.8-2.6-1.4-3.6
		c-0.6-1.1-1.3-2-2.3-2.7c0.7-0.2,1.3-0.4,1.8-0.5c0.5-0.2,0.9-0.4,1.3-0.5s0.7-0.4,1-0.6s0.6-0.4,0.8-0.6c0.7-0.6,1.3-1.1,1.8-1.6
		c0.5-0.5,0.9-1,1.3-1.3c0.4-0.4,0.7-0.7,0.9-0.9c0.2-0.2,0.4-0.3,0.6-0.3c0.1,0,0.2,0.1,0.2,0.2c0,0.2-0.2,0.5-0.5,1.1
		c-0.3,0.5-0.6,1.2-0.8,1.9c-0.3,1-0.6,2-0.8,3s-0.4,2.2-0.6,3.6c-0.2,1.4-0.3,3-0.4,5s-0.1,4.3-0.1,7c-0.3,0.2-0.7,0.4-1,0.6
		C334.5,28.6,334.2,28.9,333.8,29.3z M332.7,33.3c0-0.5,0.2-1,0.6-1.4c0.4-0.4,0.8-0.6,1.4-0.6s1,0.2,1.4,0.6
		c0.4,0.4,0.6,0.8,0.6,1.4c0,0.6-0.2,1-0.6,1.4s-0.8,0.6-1.4,0.6s-1-0.2-1.4-0.6S332.7,33.9,332.7,33.3z"/>
</g>
</svg>
