<?xml version="1.0" encoding="utf-8"?>
<!-- Generator: Adobe Illustrator 18.0.0, SVG Export Plug-In . SVG Version: 6.00 Build 0)  -->
<!DOCTYPE svg PUBLIC "-//W3C//DTD SVG 1.1//EN" "http://www.w3.org/Graphics/SVG/1.1/DTD/svg11.dtd">
<svg version="1.1" id="Layer_1" xmlns="http://www.w3.org/2000/svg" xmlns:xlink="http://www.w3.org/1999/xlink" x="0px" y="0px"
	 width="339.5px" height="45.3px" viewBox="0 0 339.5 45.3" enable-background="new 0 0 339.5 45.3" xml:space="preserve">
<g>
	<path fill="#898989" d="M42.6,16.9c-0.3,0.5-0.7,0.9-1,1.2c-0.4,0.3-0.8,0.6-1.1,0.8c-0.4,0.2-0.8,0.3-1.1,0.4
		c-0.4,0.1-0.7,0.1-0.9,0.1c-1,0-1.8-0.3-2.5-0.9c-0.7-0.6-1.1-1.4-1.1-2.4c0-0.4,0.1-0.8,0.3-1.2c0.2-0.3,0.4-0.6,0.7-0.9
		c0.3-0.3,0.6-0.4,0.9-0.6c0.3-0.1,0.7-0.2,1-0.2c1.2,0,1.8,0.5,1.8,1.5c-0.2-0.3-0.4-0.4-0.8-0.4c-0.4,0-0.6,0.1-0.8,0.4
		s-0.2,0.6-0.2,1c0,0.5,0.2,0.8,0.6,1.1c0.4,0.3,0.8,0.5,1.3,0.5c0.2,0,0.5-0.1,0.8-0.2c0.3-0.1,0.6-0.3,0.8-0.6
		c0.3-0.3,0.5-0.6,0.6-1.1c0.2-0.5,0.3-1,0.3-1.6c0-0.8-0.2-1.5-0.6-2.1c-0.4-0.6-0.9-1.1-1.4-1.5c-0.6-0.4-1.2-0.7-2-0.9
		C37.4,9.1,36.7,9,36,9c-1.3,0-2.5,0.3-3.5,0.9s-1.9,1.3-2.6,2.3c-0.7,1-1.2,2.1-1.6,3.4c-0.3,1.3-0.5,2.6-0.5,4
		c0,1.8,0.2,3.5,0.6,5c0.4,1.5,1,2.7,1.8,3.7c0.8,1,1.8,1.8,2.9,2.4c1.1,0.6,2.5,0.8,4,0.8c0.8,0,1.6-0.1,2.4-0.3s1.5-0.5,2.1-1
		c0.6-0.4,1.1-0.9,1.5-1.5c0.4-0.6,0.6-1.3,0.6-2c0-0.5-0.2-1-0.6-1.3c-0.4-0.3-0.8-0.5-1.2-0.5c0.3-0.4,0.8-0.6,1.4-0.6
		c0.5,0,0.9,0.1,1.2,0.4c0.4,0.2,0.7,0.6,0.9,0.9c0.3,0.4,0.5,0.8,0.6,1.3c0.1,0.5,0.2,1,0.2,1.5c0,1-0.2,1.9-0.7,2.8
		c-0.4,0.9-1.1,1.7-1.9,2.4c-0.8,0.7-1.8,1.3-3,1.7c-1.2,0.4-2.5,0.7-3.9,0.7c-1.9,0-3.6-0.4-5-1.3c-1.4-0.9-2.6-2-3.6-3.5
		c-1-1.4-1.7-3-2.2-4.8c-0.5-1.8-0.7-3.6-0.7-5.3c0-2.5,0.3-4.7,1-6.6c0.7-1.9,1.6-3.5,2.7-4.8s2.4-2.3,3.8-2.9c1.4-0.7,2.9-1,4.5-1
		c0.6,0,1.2,0.1,1.8,0.3c0.7,0.2,1.3,0.5,1.9,0.9c0.6,0.4,1.2,0.9,1.6,1.5s0.8,1.3,0.9,2.1c0.3-0.5,0.6-0.8,1-0.9
		c0.3-0.1,0.7-0.2,1.1-0.2c0.5,0,0.9,0.1,1.2,0.3c0.4,0.2,0.6,0.6,0.6,1c0,0.5-0.2,0.9-0.5,1.2s-0.6,0.4-0.9,0.4
		c-0.3,0-0.5-0.1-0.6-0.2c0.4-0.2,0.6-0.5,0.6-0.8c0-0.2-0.1-0.3-0.3-0.4c-0.2-0.1-0.3-0.1-0.5-0.1c-0.3,0-0.6,0.2-0.9,0.5
		S44,12.2,44,13c0,0.7,0,1.3,0.1,2c0.1,0.6,0.2,1.2,0.4,1.7c0.2,0.5,0.5,0.9,0.8,1.2c0.3,0.3,0.7,0.5,1.1,0.5c0.3,0,0.6-0.1,0.8-0.3
		s0.3-0.5,0.3-0.8c0-0.1-0.1-0.3-0.2-0.4c-0.1-0.2-0.3-0.2-0.5-0.2c0.2-0.3,0.5-0.4,0.8-0.4c0.4,0,0.7,0.2,1,0.5
		c0.3,0.3,0.4,0.7,0.4,1.2c0,0.8-0.2,1.4-0.7,1.8c-0.5,0.4-1.1,0.6-1.9,0.6c-0.3,0-0.6-0.1-1-0.2c-0.4-0.1-0.7-0.3-1.1-0.6
		c-0.4-0.3-0.7-0.6-1-1.1C43,18.1,42.8,17.5,42.6,16.9z"/>
	<path fill="#898989" d="M70.9,17.6c0.2,0,0.4,0.1,0.4,0.3c0,0.1-0.1,0.2-0.2,0.3c-0.1,0.1-0.3,0.1-0.5,0.1c-0.2,0-0.4,0.1-0.7,0.2
		c-0.2,0.1-0.4,0.2-0.6,0.3c-0.3,0.3-0.5,0.8-0.5,1.5v11.5c0,0.8,0.2,1.3,0.5,1.5c0.2,0.2,0.4,0.3,0.6,0.3c0.2,0.1,0.4,0.1,0.7,0.2
		c0.2,0,0.4,0.1,0.5,0.1c0.1,0.1,0.2,0.1,0.2,0.3c0,0.2-0.1,0.3-0.4,0.3h-6.9c-0.2,0-0.4-0.1-0.4-0.3c0-0.1,0.1-0.2,0.2-0.3
		c0.1-0.1,0.3-0.1,0.5-0.1c0.2,0,0.4-0.1,0.7-0.2c0.2-0.1,0.4-0.2,0.6-0.3c0.3-0.2,0.5-0.7,0.5-1.5V20.4h-8.6v11.5
		c0,0.8,0.2,1.3,0.5,1.5c0.2,0.2,0.4,0.3,0.6,0.3c0.2,0.1,0.4,0.1,0.7,0.2c0.2,0,0.4,0.1,0.5,0.1c0.1,0.1,0.2,0.1,0.2,0.3
		c0,0.2-0.1,0.3-0.4,0.3H53c-0.2,0-0.4-0.1-0.4-0.3c0-0.1,0.1-0.2,0.2-0.3c0.1-0.1,0.3-0.1,0.5-0.1c0.2,0,0.4-0.1,0.7-0.2
		s0.5-0.2,0.6-0.3c0.3-0.3,0.5-0.8,0.5-1.5V20.3c0-0.7-0.2-1.2-0.5-1.5c-0.2-0.2-0.4-0.3-0.6-0.3c-0.2-0.1-0.5-0.1-0.7-0.2
		c-0.2,0-0.4-0.1-0.5-0.1c-0.1-0.1-0.2-0.1-0.2-0.3c0-0.2,0.1-0.3,0.4-0.3H70.9z"/>
	<path fill="#898989" d="M89.4,31.9c0,0.7,0.2,1.3,0.5,1.5c0.2,0.2,0.4,0.3,0.6,0.3s0.5,0.1,0.7,0.2c0.2,0,0.4,0.1,0.5,0.1
		c0.1,0.1,0.2,0.1,0.2,0.3c0,0.2-0.1,0.3-0.4,0.3h-4.7v-2.1c-0.2,0.6-0.6,1.1-1.1,1.4c-0.5,0.4-1,0.6-1.5,0.8
		c-0.6,0.2-1.2,0.3-1.8,0.4s-1.2,0.1-1.8,0.1c-0.9,0-1.7-0.1-2.5-0.2c-0.8-0.2-1.5-0.4-2.1-0.8s-1.1-0.8-1.4-1.4
		c-0.3-0.6-0.5-1.3-0.5-2.2c0-1.4,0.5-2.4,1.4-3.3c0.9-0.8,2.1-1.4,3.5-1.8l7.2-2c0.2-0.1,0.4-0.2,0.5-0.3c0.1-0.1,0.1-0.3,0.1-0.5
		c0-1-0.5-1.8-1.4-2.3c-0.9-0.5-2.1-0.8-3.5-0.8c-1.2,0-2.1,0.2-2.9,0.5c-0.8,0.3-1.1,0.8-1.1,1.5c0,0.3,0,0.5,0.1,0.6
		c0.1,0.1,0.2,0.2,0.3,0.3c0.1,0.1,0.2,0.1,0.3,0.2c0.1,0.1,0.2,0.2,0.2,0.3c0,0.2-0.3,0.2-0.9,0.2c-0.8,0-1.4-0.2-1.8-0.5
		s-0.7-0.9-0.7-1.7c0-0.7,0.2-1.3,0.6-1.8c0.4-0.5,0.9-0.9,1.6-1.2c0.6-0.3,1.3-0.5,2.1-0.7S81.3,17,82,17c0.9,0,1.8,0.1,2.7,0.3
		c0.9,0.2,1.7,0.5,2.3,0.9c0.7,0.4,1.2,1,1.7,1.8c0.4,0.7,0.6,1.7,0.6,2.8V31.9z M86.9,25.5c0-0.1-0.1-0.1-0.2-0.1
		c-0.2,0-0.4,0-0.5,0.1l-7,2.2c-0.6,0.2-1.1,0.5-1.5,1c-0.4,0.5-0.6,1-0.6,1.6c0,0.8,0.3,1.4,0.9,1.8c0.6,0.4,1.5,0.6,2.6,0.6
		c0.5,0,1,0,1.5-0.1c0.5-0.1,0.9-0.2,1.3-0.3s0.7-0.4,1-0.7c0.3-0.3,0.4-0.6,0.4-1.1c0-0.2,0-0.4-0.1-0.5c-0.1-0.1-0.1-0.2-0.1-0.3
		c0-0.1,0.2-0.2,0.5-0.2c0.5,0,0.8,0.1,1.1,0.3c0.3,0.2,0.5,0.5,0.8,1v-2.8V25.5z"/>
	<path fill="#898989" d="M95,25.6c0-0.9,0.2-1.8,0.5-2.8c0.3-1,0.8-1.9,1.5-2.8c0.7-0.9,1.5-1.6,2.5-2.1c1-0.6,2.2-0.8,3.5-0.8
		c0.6,0,1.2,0.1,1.6,0.2c0.4,0.1,0.8,0.3,1.2,0.4s0.7,0.3,1,0.4c0.3,0.1,0.7,0.2,1.1,0.2c0.2,0,0.3,0,0.5-0.1s0.2-0.1,0.3-0.2
		c0.1-0.1,0.2-0.1,0.2-0.2c0.1-0.1,0.2-0.1,0.3-0.1c0.2,0,0.3,0.1,0.3,0.3c0,0.1-0.1,0.4-0.4,0.9s-0.5,0.9-0.8,1.5
		c-0.3,0.7-0.5,1.4-0.7,2.1c-0.2,0.7-0.4,1-0.6,1c-0.1,0-0.3-0.2-0.4-0.6c-0.1-0.4-0.3-0.8-0.5-1.3s-0.6-0.9-1.1-1.3
		c-0.5-0.4-1.2-0.6-2.1-0.6c-0.9,0-1.7,0.2-2.3,0.5s-1.3,0.8-1.7,1.3c-0.5,0.6-0.8,1.2-1.1,1.9c-0.3,0.7-0.4,1.5-0.4,2.3v0.8
		c0,0.8,0.1,1.6,0.4,2.3c0.3,0.7,0.6,1.4,1.1,1.9c0.5,0.6,1,1,1.7,1.3c0.7,0.3,1.5,0.5,2.3,0.5c1.3,0,2.3-0.3,3.2-0.9
		c0.9-0.6,1.3-1.4,1.3-2.3c0-0.3-0.1-0.6-0.3-0.7c-0.2-0.1-0.3-0.2-0.3-0.4c0-0.1,0.1-0.1,0.3-0.2c0.2-0.1,0.3-0.1,0.4-0.1
		c0.5,0,0.9,0.2,1.3,0.6c0.3,0.4,0.5,0.9,0.5,1.6c0,0.6-0.2,1.2-0.5,1.8s-0.8,1.1-1.3,1.6s-1.2,0.9-2,1.2c-0.8,0.3-1.6,0.4-2.6,0.4
		c-1.3,0-2.5-0.3-3.5-0.8c-1-0.6-1.9-1.3-2.5-2.1c-0.7-0.9-1.2-1.8-1.5-2.8c-0.3-1-0.5-1.9-0.5-2.8V25.6z"/>
	<path fill="#898989" d="M115.1,22.5c0-0.6-0.1-1-0.4-1.3c-0.3-0.3-0.6-0.5-0.9-0.6c-0.3-0.1-0.6-0.2-0.9-0.3
		c-0.3-0.1-0.4-0.2-0.4-0.3c0-0.1,0.1-0.2,0.2-0.2c0.1,0,0.3-0.1,0.4-0.1c0.2,0,0.4-0.1,0.7-0.2c0.3-0.1,0.6-0.2,0.9-0.4
		c0.5-0.3,0.9-0.5,1.1-0.8c0.3-0.3,0.5-0.5,0.6-0.7c0.1-0.2,0.3-0.3,0.4-0.4c0.1-0.1,0.2-0.2,0.4-0.2c0.2,0,0.4,0.2,0.4,0.6v11.9
		l8.3-9.3c0.2-0.2,0.3-0.4,0.3-0.6c0-0.1-0.1-0.3-0.2-0.4c-0.1-0.1-0.2-0.3-0.4-0.4c-0.2-0.2-0.4-0.3-0.6-0.3
		c-0.2-0.1-0.4-0.1-0.7-0.2c-0.2,0-0.4-0.1-0.5-0.1c-0.1-0.1-0.2-0.1-0.2-0.3c0-0.2,0.1-0.3,0.4-0.3h6.9c0.2,0,0.4,0.1,0.4,0.3
		c0,0.1-0.1,0.2-0.2,0.3c-0.1,0.1-0.3,0.1-0.5,0.1c-0.2,0-0.4,0.1-0.7,0.2c-0.2,0.1-0.4,0.2-0.6,0.3c-0.3,0.3-0.5,0.8-0.5,1.5v11.4
		c0,0.6,0.1,1,0.4,1.3c0.3,0.3,0.6,0.5,0.9,0.6c0.3,0.1,0.6,0.2,0.9,0.3c0.3,0.1,0.4,0.2,0.4,0.3c0,0.2-0.2,0.3-0.6,0.4
		c-0.4,0-0.9,0.2-1.6,0.6c-0.5,0.3-0.9,0.5-1.1,0.8c-0.3,0.2-0.5,0.5-0.6,0.6c-0.1,0.2-0.3,0.3-0.4,0.4c-0.1,0.1-0.2,0.2-0.4,0.2
		c-0.2,0-0.4-0.2-0.4-0.6V22.7l-8.3,9.3c-0.2,0.2-0.3,0.4-0.3,0.6c0,0.1,0.1,0.3,0.2,0.4c0.1,0.1,0.2,0.3,0.4,0.3
		c0.2,0.2,0.4,0.3,0.6,0.3c0.2,0.1,0.4,0.1,0.7,0.2c0.2,0,0.4,0.1,0.5,0.1c0.1,0.1,0.2,0.1,0.2,0.3c0,0.2-0.1,0.3-0.4,0.3h-6.9
		c-0.2,0-0.4-0.1-0.4-0.3c0-0.1,0.1-0.2,0.2-0.3c0.1-0.1,0.3-0.1,0.5-0.1c0.2,0,0.4-0.1,0.7-0.2s0.5-0.2,0.6-0.3
		c0.3-0.3,0.5-0.8,0.5-1.5V22.5z"/>
	<path fill="#898989" d="M134.2,21.6c0-2,0.1-3.9,0.2-5.6c0.1-1.7,0.4-3.2,0.9-4.5c0.5-1.3,1.2-2.3,2.2-3c1-0.7,2.4-1.1,4.1-1.1
		c1.3,0,2.4,0.1,3.5,0.4c1,0.2,2,0.4,2.9,0.4c0.5,0,0.9-0.1,1.1-0.3c0.2-0.2,0.3-0.3,0.4-0.3c0.1,0,0.1,0.1,0.1,0.2
		c0,0.3-0.1,0.6-0.2,0.9c-0.1,0.3-0.3,0.6-0.6,0.9c-0.3,0.3-0.7,0.5-1.2,0.7c-0.5,0.2-1.2,0.3-2,0.3c-1,0-1.8-0.1-2.5-0.3
		c-0.7-0.2-1.4-0.3-2.2-0.3c-0.8,0-1.5,0.2-2,0.5c-0.5,0.4-1,0.9-1.3,1.6s-0.5,1.5-0.7,2.6c-0.1,1-0.2,2.2-0.2,3.5v1.4
		c0.7-0.7,1.5-1.3,2.4-1.7c0.9-0.5,2-0.7,3.1-0.7c1.3,0,2.5,0.3,3.5,0.8c1,0.6,1.8,1.3,2.5,2.1c0.7,0.9,1.2,1.8,1.5,2.8
		c0.3,1,0.5,1.9,0.5,2.8v1.1c0,0.9-0.2,1.8-0.5,2.8c-0.3,1-0.8,1.9-1.5,2.8c-0.7,0.9-1.5,1.6-2.5,2.1c-1,0.6-2.2,0.8-3.5,0.8
		c-1.3,0-2.5-0.3-3.5-0.9c-1-0.6-1.9-1.3-2.5-2.2c-0.7-0.9-1.2-2-1.5-3.1c-0.3-1.1-0.5-2.3-0.5-3.4V21.6z M136.7,26.5
		c0,0.8,0.1,1.6,0.4,2.3c0.3,0.7,0.6,1.4,1.1,1.9s1.1,1,1.7,1.3c0.7,0.3,1.4,0.5,2.3,0.5c0.9,0,1.6-0.2,2.3-0.5
		c0.7-0.3,1.3-0.8,1.7-1.3c0.5-0.6,0.8-1.2,1.1-1.9c0.3-0.7,0.4-1.5,0.4-2.3v-0.8c0-0.8-0.1-1.6-0.4-2.3c-0.3-0.7-0.6-1.4-1.1-1.9
		c-0.5-0.6-1-1-1.7-1.3c-0.7-0.3-1.4-0.5-2.3-0.5c-0.9,0-1.6,0.2-2.3,0.5c-0.7,0.3-1.3,0.8-1.7,1.3s-0.8,1.2-1.1,1.9
		c-0.3,0.7-0.4,1.5-0.4,2.3V26.5z"/>
	<path fill="#898989" d="M153.1,25.6c0-0.9,0.2-1.8,0.5-2.8c0.3-1,0.8-1.9,1.5-2.8c0.7-0.9,1.5-1.6,2.5-2.1c1-0.6,2.2-0.8,3.5-0.8
		c1.3,0,2.5,0.3,3.5,0.8c1,0.6,1.8,1.3,2.5,2.1c0.7,0.9,1.2,1.8,1.5,2.8c0.3,1,0.5,1.9,0.5,2.8v1.1c0,0.9-0.2,1.8-0.5,2.8
		c-0.3,1-0.8,1.9-1.5,2.8c-0.7,0.9-1.5,1.6-2.5,2.1c-1,0.6-2.2,0.8-3.5,0.8c-1.3,0-2.5-0.3-3.5-0.8c-1-0.6-1.9-1.3-2.5-2.1
		c-0.7-0.9-1.2-1.8-1.5-2.8c-0.3-1-0.5-1.9-0.5-2.8V25.6z M155.6,26.5c0,0.8,0.1,1.6,0.4,2.3c0.3,0.7,0.6,1.4,1.1,1.9
		c0.5,0.6,1,1,1.7,1.3c0.7,0.3,1.5,0.5,2.3,0.5c0.9,0,1.6-0.2,2.3-0.5c0.7-0.3,1.3-0.8,1.7-1.3c0.5-0.6,0.8-1.2,1.1-1.9
		c0.3-0.7,0.4-1.5,0.4-2.3v-0.8c0-0.8-0.1-1.6-0.4-2.3c-0.3-0.7-0.6-1.4-1.1-1.9c-0.5-0.6-1-1-1.7-1.3c-0.7-0.3-1.4-0.5-2.3-0.5
		c-0.9,0-1.7,0.2-2.3,0.5s-1.3,0.8-1.7,1.3c-0.5,0.6-0.8,1.2-1.1,1.9c-0.3,0.7-0.4,1.5-0.4,2.3V26.5z"/>
	<path fill="#898989" d="M187.9,24.7c0.9,0,1.6-0.2,2.1-0.7c0.6-0.4,0.8-1,0.8-1.8c0-0.9-0.4-1.6-1.1-2c-0.7-0.4-1.7-0.6-2.8-0.6
		c-0.7,0-1.3,0-1.8,0.1c-0.5,0.1-0.8,0.2-1.1,0.4c-0.4,0.2-0.7,0.4-0.9,0.6c-0.2,0.2-0.3,0.4-0.4,0.5s-0.2,0.3-0.2,0.4
		c0,0.1-0.1,0.1-0.2,0.1c-0.2,0-0.4-0.1-0.5-0.3c-0.2-0.2-0.4-0.3-0.7-0.5c-0.3-0.2-0.5-0.3-0.8-0.3c-0.2,0-0.4-0.2-0.4-0.3
		c0-0.2,0.3-0.6,0.8-1.1c0.6-0.6,1.3-1.1,2.4-1.5c1.2-0.5,2.5-0.8,4-0.8c0.8,0,1.6,0.1,2.4,0.2s1.5,0.4,2.1,0.8
		c0.6,0.4,1.1,0.8,1.5,1.4c0.4,0.6,0.6,1.3,0.6,2.1c0,0.9-0.3,1.8-0.9,2.6c-0.6,0.8-1.3,1.3-2.2,1.7c1,0.5,1.8,1.1,2.3,1.9
		c0.5,0.8,0.8,1.7,0.8,2.6c0,0.9-0.2,1.6-0.5,2.3s-0.9,1.1-1.5,1.5s-1.4,0.7-2.3,0.9s-1.8,0.3-2.8,0.3c-0.8,0-1.6,0-2.4-0.1
		s-1.6-0.3-2.3-0.5c-0.7-0.3-1.3-0.6-1.8-1.1s-0.7-1.1-0.7-1.9c0-0.4,0.1-0.7,0.2-1c0.1-0.3,0.3-0.5,0.5-0.7s0.4-0.3,0.6-0.4
		c0.2-0.1,0.4-0.1,0.6-0.1c0.2,0,0.3,0,0.4,0.1c0.1,0.1,0.2,0.1,0.2,0.2c0,0.1-0.1,0.2-0.2,0.3c-0.1,0.1-0.2,0.3-0.2,0.5
		c0,0.5,0.1,0.9,0.4,1.2c0.3,0.3,0.7,0.5,1.2,0.7c0.5,0.2,1,0.3,1.6,0.3c0.6,0.1,1.2,0.1,1.8,0.1c1.4,0,2.4-0.2,3.1-0.7s1-1.3,1-2.5
		c0-0.8-0.2-1.5-0.7-2c-0.5-0.5-1.1-0.8-2-0.8h-4.4c-0.1,0-0.2,0-0.3,0.1c-0.1,0-0.2,0.1-0.3,0.1s-0.1,0-0.1-0.1s0-0.2,0.1-0.5
		c0.1-0.2,0.1-0.4,0.1-0.6c0-0.2,0-0.4-0.1-0.6c-0.1-0.2-0.1-0.4-0.1-0.5s0-0.1,0.1-0.1s0.2,0,0.3,0.1c0.1,0,0.2,0.1,0.3,0.1H187.9z
		"/>
	<path fill="#898989" d="M211.6,31.9c0,0.7,0.2,1.3,0.5,1.5c0.2,0.2,0.4,0.3,0.6,0.3s0.5,0.1,0.7,0.2c0.2,0,0.4,0.1,0.5,0.1
		c0.1,0.1,0.2,0.1,0.2,0.3c0,0.2-0.1,0.3-0.4,0.3h-4.7v-2.1c-0.2,0.6-0.6,1.1-1.1,1.4c-0.5,0.4-1,0.6-1.5,0.8s-1.2,0.3-1.8,0.4
		c-0.6,0.1-1.2,0.1-1.8,0.1c-0.9,0-1.7-0.1-2.5-0.2s-1.5-0.4-2.1-0.8c-0.6-0.4-1.1-0.8-1.4-1.4s-0.5-1.3-0.5-2.2
		c0-1.4,0.5-2.4,1.4-3.3c0.9-0.8,2.1-1.4,3.5-1.8l7.2-2c0.2-0.1,0.4-0.2,0.5-0.3s0.1-0.3,0.1-0.5c0-1-0.5-1.8-1.4-2.3
		s-2.1-0.8-3.5-0.8c-1.2,0-2.1,0.2-2.9,0.5c-0.8,0.3-1.1,0.8-1.1,1.5c0,0.3,0,0.5,0.1,0.6c0.1,0.1,0.2,0.2,0.3,0.3
		c0.1,0.1,0.2,0.1,0.3,0.2s0.2,0.2,0.2,0.3c0,0.2-0.3,0.2-0.9,0.2c-0.8,0-1.4-0.2-1.8-0.5c-0.4-0.4-0.7-0.9-0.7-1.7
		c0-0.7,0.2-1.3,0.6-1.8c0.4-0.5,0.9-0.9,1.6-1.2c0.6-0.3,1.3-0.5,2.1-0.7c0.8-0.1,1.5-0.2,2.2-0.2c0.9,0,1.8,0.1,2.7,0.3
		c0.9,0.2,1.7,0.5,2.3,0.9c0.7,0.4,1.2,1,1.7,1.8c0.4,0.7,0.6,1.7,0.6,2.8V31.9z M209.2,25.5c0-0.1-0.1-0.1-0.2-0.1
		c-0.2,0-0.4,0-0.5,0.1l-7,2.2c-0.6,0.2-1.1,0.5-1.5,1c-0.4,0.5-0.6,1-0.6,1.6c0,0.8,0.3,1.4,0.9,1.8c0.6,0.4,1.5,0.6,2.6,0.6
		c0.5,0,1,0,1.5-0.1c0.5-0.1,0.9-0.2,1.3-0.3s0.7-0.4,1-0.7s0.4-0.6,0.4-1.1c0-0.2,0-0.4-0.1-0.5s-0.1-0.2-0.1-0.3
		c0-0.1,0.2-0.2,0.5-0.2c0.5,0,0.8,0.1,1.1,0.3c0.3,0.2,0.5,0.5,0.8,1v-2.8V25.5z"/>
	<path fill="#898989" d="M227.8,22.5c0-0.6-0.1-1-0.4-1.3c-0.3-0.3-0.6-0.5-0.9-0.6c-0.3-0.1-0.6-0.2-0.9-0.3s-0.4-0.2-0.4-0.3
		c0-0.1,0.1-0.2,0.2-0.2c0.1,0,0.3-0.1,0.4-0.1s0.4-0.1,0.7-0.2s0.6-0.2,0.9-0.4c0.5-0.3,0.9-0.5,1.1-0.8c0.3-0.3,0.5-0.5,0.6-0.7
		c0.1-0.2,0.3-0.3,0.4-0.4c0.1-0.1,0.2-0.2,0.4-0.2c0.2,0,0.4,0.2,0.4,0.6v11.9l8.3-9.3c0.2-0.2,0.3-0.4,0.3-0.6
		c0-0.1-0.1-0.3-0.2-0.4c-0.1-0.1-0.2-0.3-0.4-0.4c-0.2-0.2-0.4-0.3-0.6-0.3c-0.2-0.1-0.4-0.1-0.7-0.2s-0.4-0.1-0.5-0.1
		c-0.1-0.1-0.2-0.1-0.2-0.3c0-0.2,0.1-0.3,0.4-0.3h6.9c0.2,0,0.4,0.1,0.4,0.3c0,0.1-0.1,0.2-0.2,0.3c-0.1,0.1-0.3,0.1-0.5,0.1
		s-0.4,0.1-0.7,0.2c-0.2,0.1-0.4,0.2-0.6,0.3c-0.3,0.3-0.5,0.8-0.5,1.5v11.4c0,0.6,0.1,1,0.4,1.3c0.3,0.3,0.6,0.5,0.9,0.6
		c0.3,0.1,0.6,0.2,0.9,0.3c0.3,0.1,0.4,0.2,0.4,0.3c0,0.2-0.2,0.3-0.6,0.4c-0.4,0-0.9,0.2-1.6,0.6c-0.5,0.3-0.9,0.5-1.1,0.8
		s-0.5,0.5-0.6,0.6s-0.3,0.3-0.4,0.4s-0.2,0.2-0.4,0.2c-0.2,0-0.4-0.2-0.4-0.6V22.7l-8.3,9.3c-0.2,0.2-0.3,0.4-0.3,0.6
		c0,0.1,0.1,0.3,0.2,0.4s0.2,0.3,0.4,0.3c0.2,0.2,0.4,0.3,0.6,0.3s0.4,0.1,0.7,0.2c0.2,0,0.4,0.1,0.5,0.1c0.1,0.1,0.2,0.1,0.2,0.3
		c0,0.2-0.1,0.3-0.4,0.3h-6.9c-0.2,0-0.4-0.1-0.4-0.3c0-0.1,0.1-0.2,0.2-0.3c0.1-0.1,0.3-0.1,0.5-0.1s0.4-0.1,0.7-0.2
		s0.5-0.2,0.6-0.3c0.3-0.3,0.5-0.8,0.5-1.5V22.5z"/>
	<path fill="#898989" d="M252.2,31.9c0,0.7,0.2,1.3,0.5,1.5c0.2,0.2,0.4,0.3,0.6,0.3s0.5,0.1,0.7,0.2c0.2,0,0.4,0.1,0.5,0.1
		c0.1,0.1,0.2,0.1,0.2,0.3c0,0.2-0.1,0.3-0.4,0.3h-6.9c-0.2,0-0.4-0.1-0.4-0.3c0-0.1,0.1-0.2,0.2-0.3c0.1-0.1,0.3-0.1,0.5-0.1
		s0.4-0.1,0.7-0.2c0.2-0.1,0.4-0.2,0.6-0.3c0.3-0.2,0.5-0.7,0.5-1.5v-9.4c0-0.6-0.1-1-0.4-1.3c-0.3-0.3-0.6-0.5-0.9-0.6
		c-0.3-0.1-0.6-0.2-0.9-0.3s-0.4-0.2-0.4-0.3c0-0.1,0.1-0.2,0.2-0.2c0.1,0,0.3-0.1,0.4-0.1s0.4-0.1,0.7-0.2s0.6-0.2,0.9-0.4
		c0.5-0.3,0.9-0.5,1.1-0.8c0.3-0.3,0.5-0.5,0.6-0.7c0.1-0.2,0.3-0.3,0.4-0.4c0.1-0.1,0.2-0.2,0.4-0.2c0.2,0,0.4,0.2,0.4,0.6v1.8
		c0.5-0.6,1.2-1.1,2-1.4c0.8-0.3,1.5-0.5,2.2-0.5h1.2c0.5,0,1,0,1.5,0.1c0.5,0.1,1,0.1,1.4,0.1c0.3,0,0.6-0.1,0.7-0.3
		c0.1-0.2,0.3-0.3,0.5-0.3c0.1,0,0.2,0,0.2,0.1s0.1,0.1,0.1,0.2c0,0.1,0,0.3-0.1,0.5l-1.2,6.4c-0.1,0.2-0.2,0.4-0.4,0.4
		c-0.1,0-0.1,0-0.3-0.1s-0.2-0.2-0.2-0.3v-0.7c0-0.9-0.4-1.7-1.1-2.4s-1.6-1-2.6-1c-0.5,0-1,0.1-1.5,0.3s-0.9,0.4-1.3,0.7
		s-0.6,0.6-0.9,0.9c-0.2,0.4-0.3,0.7-0.3,1.1V31.9z"/>
	<path fill="#898989" d="M267.3,22.5c0-0.6-0.1-1-0.4-1.3c-0.3-0.3-0.6-0.5-0.9-0.6c-0.3-0.1-0.6-0.2-0.9-0.3s-0.4-0.2-0.4-0.3
		c0-0.1,0.1-0.2,0.2-0.2c0.1,0,0.3-0.1,0.4-0.1s0.4-0.1,0.7-0.2s0.6-0.2,0.9-0.4c0.5-0.3,0.9-0.5,1.1-0.8c0.3-0.3,0.5-0.5,0.6-0.7
		s0.3-0.3,0.4-0.4c0.1-0.1,0.2-0.2,0.4-0.2c0.2,0,0.3,0.2,0.3,0.6v2.2c0.6-0.9,1.3-1.5,2.3-2c1-0.5,2-0.7,3-0.7
		c1.1,0,2.2,0.2,3.2,0.7c1,0.5,1.8,1.1,2.5,1.9c0.7,0.8,1.2,1.7,1.6,2.7c0.4,1,0.6,2.1,0.6,3.2v1.1c0,1.1-0.2,2.2-0.6,3.2
		s-0.9,1.9-1.6,2.7c-0.7,0.8-1.5,1.4-2.5,1.9c-1,0.5-2,0.7-3.2,0.7c-1,0-2-0.2-3-0.7s-1.8-1.1-2.3-2v3.4c0,1,0.1,1.7,0.3,2.2
		c0.2,0.5,0.4,0.9,0.6,1.1s0.4,0.4,0.6,0.5c0.2,0.1,0.3,0.2,0.3,0.3c0,0.1-0.1,0.2-0.2,0.3c-0.2,0.1-0.4,0.2-0.6,0.3
		c-0.3,0.1-0.6,0.2-0.9,0.4s-0.6,0.4-1,0.7c-0.5,0.5-0.9,0.9-1.2,1.3c-0.3,0.4-0.5,0.7-0.7,0.9s-0.3,0.4-0.4,0.5
		c-0.1,0.1-0.2,0.2-0.3,0.2c-0.2,0-0.4-0.1-0.4-0.2s0.1-0.4,0.2-0.8s0.3-0.8,0.5-1.4c0.2-0.6,0.4-1.3,0.6-2.2c0.2-0.9,0.3-2,0.3-3.3
		V22.5z M269.8,28.7c0.4-0.3,0.7-0.5,1.1-0.5c0.1,0,0.3,0,0.5,0.1c0.2,0.1,0.3,0.1,0.3,0.2c0,0.1,0,0.1-0.1,0.2
		c-0.1,0.1-0.1,0.1-0.2,0.2s-0.1,0.2-0.2,0.3c-0.1,0.1-0.1,0.3-0.1,0.6c0,0.3,0.1,0.6,0.3,0.9c0.2,0.3,0.5,0.6,0.9,0.9
		s0.8,0.5,1.2,0.7c0.4,0.2,0.9,0.3,1.3,0.3c0.9,0,1.6-0.2,2.3-0.5c0.7-0.3,1.3-0.8,1.7-1.3s0.8-1.2,1.1-1.9c0.3-0.7,0.4-1.5,0.4-2.3
		v-0.8c0-0.8-0.1-1.6-0.4-2.3c-0.3-0.7-0.6-1.4-1.1-1.9s-1-1-1.7-1.3c-0.7-0.3-1.4-0.5-2.3-0.5c-0.5,0-0.9,0.1-1.3,0.3
		c-0.4,0.2-0.8,0.4-1.2,0.7c-0.4,0.3-0.6,0.6-0.9,0.9c-0.2,0.3-0.3,0.7-0.3,1c0,0.5,0.1,0.7,0.3,0.9c0.2,0.1,0.3,0.2,0.3,0.3
		c0,0.1-0.1,0.2-0.3,0.2c-0.2,0.1-0.3,0.1-0.5,0.1c-0.4,0-0.7-0.2-1.1-0.5V28.7z"/>
	<path fill="#898989" d="M289.2,21.1c-0.4-0.9-0.7-1.6-0.9-1.9c-0.3-0.3-0.5-0.6-0.8-0.7c-0.3-0.2-0.6-0.2-1-0.3
		c-0.3,0-0.5-0.1-0.5-0.4c0-0.2,0.1-0.2,0.4-0.2h6.2c0.3,0,0.5,0.1,0.5,0.3c0,0.2-0.1,0.3-0.3,0.3s-0.4,0.1-0.6,0.2
		c-0.2,0.1-0.4,0.2-0.6,0.3c-0.2,0.1-0.3,0.3-0.3,0.6c0,0.1,0,0.3,0.1,0.4s0.1,0.4,0.3,0.8l4,10.6l3.9-10.6c0.1-0.4,0.2-0.7,0.3-0.8
		s0.1-0.3,0.1-0.4c0-0.3-0.1-0.5-0.3-0.6s-0.4-0.2-0.6-0.3c-0.2-0.1-0.4-0.1-0.6-0.2s-0.3-0.1-0.3-0.3c0-0.2,0.2-0.3,0.5-0.3h6.1
		c0.2,0,0.4,0.1,0.4,0.2c0,0.2-0.2,0.4-0.5,0.4c-0.3,0-0.7,0.1-1,0.3c-0.3,0.1-0.6,0.4-0.8,0.7c-0.3,0.3-0.6,1-0.9,1.9l-5,13.4v5.4
		c0,0.6-0.1,1.1-0.3,1.7c-0.2,0.5-0.4,1-0.8,1.5c-0.4,0.4-0.8,0.8-1.4,1c-0.6,0.3-1.2,0.4-2,0.4c-0.3,0-0.7,0-1-0.1
		c-0.3-0.1-0.7-0.2-1-0.4c-1.3-0.6-1.9-1.1-1.9-1.4c0-0.1,0.1-0.2,0.4-0.3s0.5-0.3,0.8-0.6c0.2-0.2,0.4-0.5,0.6-0.8s0.3-0.4,0.3-0.4
		c0.1,0,0.2,0.1,0.2,0.2c0.1,0.1,0.2,0.3,0.3,0.5c0.1,0.2,0.3,0.3,0.5,0.5c0.2,0.1,0.5,0.2,0.9,0.2c0.5,0,1-0.2,1.3-0.5
		s0.5-0.9,0.5-1.6v-5.2L289.2,21.1z"/>
	<path fill="#898989" d="M311.2,29.3c0-2.1-0.1-4-0.2-5.7c-0.1-1.7-0.3-3.3-0.6-4.6c-0.3-1.4-0.8-2.6-1.4-3.6
		c-0.6-1.1-1.3-2-2.3-2.7c0.7-0.2,1.3-0.4,1.8-0.5c0.5-0.2,0.9-0.4,1.3-0.5s0.7-0.4,1-0.6s0.6-0.4,0.8-0.6c0.7-0.6,1.3-1.1,1.8-1.6
		c0.5-0.5,0.9-1,1.3-1.3c0.4-0.4,0.7-0.7,0.9-0.9c0.2-0.2,0.4-0.3,0.6-0.3c0.1,0,0.2,0.1,0.2,0.2c0,0.2-0.2,0.5-0.5,1.1
		c-0.3,0.5-0.6,1.2-0.8,1.9c-0.3,1-0.6,2-0.8,3s-0.4,2.2-0.6,3.6c-0.2,1.4-0.3,3-0.4,5s-0.1,4.3-0.1,7c-0.3,0.2-0.7,0.4-1,0.6
		C311.9,28.6,311.6,28.9,311.2,29.3z M310.1,33.3c0-0.5,0.2-1,0.6-1.4c0.4-0.4,0.8-0.6,1.4-0.6s1,0.2,1.4,0.6
		c0.4,0.4,0.6,0.8,0.6,1.4c0,0.6-0.2,1-0.6,1.4s-0.8,0.6-1.4,0.6s-1-0.2-1.4-0.6S310.1,33.9,310.1,33.3z"/>
</g>
</svg>
