<?xml version="1.0" encoding="utf-8"?>
<!-- Generator: Adobe Illustrator 18.0.0, SVG Export Plug-In . SVG Version: 6.00 Build 0)  -->
<!DOCTYPE svg PUBLIC "-//W3C//DTD SVG 1.1//EN" "http://www.w3.org/Graphics/SVG/1.1/DTD/svg11.dtd">
<svg version="1.1" id="Layer_1" xmlns="http://www.w3.org/2000/svg" xmlns:xlink="http://www.w3.org/1999/xlink" x="0px" y="0px"
	 width="35.3px" height="28.7px" viewBox="0 0 35.3 28.7" enable-background="new 0 0 35.3 28.7" xml:space="preserve">
<g>
	<path fill="#FFFFFF" d="M35.3,3.4c-1.3,0.6-2.7,1-4.2,1.1c1.5-0.9,2.6-2.3,3.2-4c-1.4,0.8-3,1.4-4.6,1.8C28.4,0.9,26.5,0,24.5,0
		c-4,0-7.2,3.2-7.2,7.2c0,0.6,0.1,1.1,0.2,1.7C11.4,8.6,6,5.7,2.5,1.3c-0.6,1.1-1,2.3-1,3.6c0,2.5,1.3,4.7,3.2,6
		c-1.2,0-2.3-0.4-3.3-0.9v0.1c0,3.5,2.5,6.4,5.8,7.1c-0.6,0.2-1.2,0.2-1.9,0.2c-0.5,0-0.9,0-1.4-0.1c0.9,2.9,3.6,5,6.8,5
		c-2.5,1.9-5.6,3.1-9,3.1c-0.6,0-1.2,0-1.7-0.1c3.2,2.1,7,3.3,11.1,3.3c13.3,0,20.6-11,20.6-20.6l0-0.9C33.1,6.1,34.4,4.9,35.3,3.4
		L35.3,3.4z M35.3,3.4"/>
</g>
</svg>
