<?xml version="1.0" encoding="utf-8"?>
<!-- Generator: Adobe Illustrator 18.0.0, SVG Export Plug-In . SVG Version: 6.00 Build 0)  -->
<!DOCTYPE svg PUBLIC "-//W3C//DTD SVG 1.1//EN" "http://www.w3.org/Graphics/SVG/1.1/DTD/svg11.dtd">
<svg version="1.1" id="Layer_1" xmlns="http://www.w3.org/2000/svg" xmlns:xlink="http://www.w3.org/1999/xlink" x="0px" y="0px"
	 width="23.5px" height="30.7px" viewBox="0 0 23.5 30.7" enable-background="new 0 0 23.5 30.7" xml:space="preserve">
<g>
	<g>
		<path fill="#FFFFFF" d="M14.4,18c-1-0.6-2.4-0.6-3.5-0.6H7.2V25h3.4c1.3,0,2.9,0.1,3.9-0.7c1-0.7,1.6-2,1.6-3.2
			C16.1,19.9,15.4,18.5,14.4,18L14.4,18z M13,11.5c0.8-0.6,1.3-1.7,1.3-2.8c0-1.1-0.5-2.2-1.5-2.8c-1-0.6-2.8-0.4-4-0.4H7.2v6.7h2.1
			C10.5,12.2,11.9,12.3,13,11.5L13,11.5z M12.7,30.7H0V0h13.9c4,0,7.7,2.6,7.7,7.1c0,3.5-2,5.9-4.4,6.6v0.1c3.7,0.8,6.3,2.8,6.3,7.6
			C23.5,25.9,20.5,30.7,12.7,30.7L12.7,30.7z M12.7,30.7"/>
	</g>
</g>
</svg>
