<?xml version="1.0" encoding="utf-8"?>
<!-- Generator: Adobe Illustrator 18.0.0, SVG Export Plug-In . SVG Version: 6.00 Build 0)  -->
<!DOCTYPE svg PUBLIC "-//W3C//DTD SVG 1.1//EN" "http://www.w3.org/Graphics/SVG/1.1/DTD/svg11.dtd">
<svg version="1.1" id="Layer_1" xmlns="http://www.w3.org/2000/svg" xmlns:xlink="http://www.w3.org/1999/xlink" x="0px" y="0px"
	 width="29.1px" height="29.1px" viewBox="0 0 29.1 29.1" enable-background="new 0 0 29.1 29.1" xml:space="preserve">
<g>
	<path fill="#827D79" d="M14.5,0C6.5,0,0,6.5,0,14.5c0,8,6.5,14.5,14.5,14.5c8,0,14.5-6.5,14.5-14.5C29.1,6.5,22.6,0,14.5,0L14.5,0z
		 M18.6,25.6c-0.1-1.1-0.2-2.5-0.2-3.1c0-0.4-0.1-1.6-1.1-2.3c4.2-0.4,6.2-2.7,6.3-5.7c0.1-1.7-0.6-3.3-1.8-4.5
		c0.1-1.3,0-2.9-0.1-3.6c-0.9-0.3-3.2,0.9-3.8,1.4c-1.3-0.5-4.5-0.7-6.4,0c-1.4-1-2.9-1.6-3.8-1.4C6.9,8.1,7.4,9.8,7.6,10
		c-1,0.9-2.4,2.1-2,4.4c0.6,3.5,3.1,5.4,7,5.8c-0.8,0.2-1,0.8-1.1,1.1c-2.7,1.1-3.4-0.7-3.8-1.1c-1.1-1.4-2.1-1-2.2-1
		c-0.1,0-0.1,0.1-0.1,0.2C5.5,19.7,6.1,20,6.2,20c0.8,0.6,1.1,1.7,1.3,2c1.2,1.9,3.9,1.1,4,1.2c0,0.2,0,1.6,0,2.7
		c-5-1.4-8.7-5.9-8.7-11.4C2.7,8,8,2.7,14.5,2.7S26.3,8,26.3,14.5C26.3,19.6,23.1,23.9,18.6,25.6L18.6,25.6z M18.6,25.6"/>
</g>
</svg>
