<?xml version="1.0" encoding="utf-8"?>
<!-- Generator: Adobe Illustrator 18.0.0, SVG Export Plug-In . SVG Version: 6.00 Build 0)  -->
<!DOCTYPE svg PUBLIC "-//W3C//DTD SVG 1.1//EN" "http://www.w3.org/Graphics/SVG/1.1/DTD/svg11.dtd">
<svg version="1.1" id="Layer_1" xmlns="http://www.w3.org/2000/svg" xmlns:xlink="http://www.w3.org/1999/xlink" x="0px" y="0px"
	 width="330.6px" height="62.9px" viewBox="0 0 330.6 62.9" enable-background="new 0 0 330.6 62.9" xml:space="preserve">
<g>
	<g>
		<path fill="#95908D" d="M0,32.6c1.9-1,3.6-2.3,4.9-3.9s2.3-3.3,3.1-5.3c0.8-1.9,1.3-3.9,1.6-6s0.5-4.1,0.5-6.1
			c0-0.8,0-1.6-0.1-2.4c0-0.8-0.1-1.6-0.3-2.4C8.2,7.6,6.9,8.5,6,9.4s-1.6,1.8-2.1,2.5S3,13.3,2.8,13.7c-0.3,0.5-0.5,0.7-0.8,0.7
			s-0.5-0.2-0.5-0.6c0-0.4,0-0.9,0.1-1.4s0.1-1.1,0.1-1.7c0-1.4-0.1-2.5-0.2-3.4s-0.4-1.5-0.6-2c-0.2-0.6-0.3-1-0.5-1.2
			S0.2,3.6,0.2,3.3C0.2,3.1,0.3,3,0.5,3S0.8,3,1,3.1s0.3,0.2,0.5,0.3s0.4,0.2,0.7,0.3s0.6,0.2,1,0.2c1.1,0,2.1-0.2,3-0.5
			s1.9-0.7,3-1.1s2.3-0.8,3.6-1.1s2.9-0.5,4.7-0.5c2.9,0,5.2,0.4,6.9,1.2c1.7,0.8,3.1,2,4,3.5s1.6,3.4,1.9,5.5s0.5,4.6,0.5,7.2
			c0,1.1-0.1,2.3-0.4,3.7c-0.3,1.4-0.7,2.9-1.2,4.4s-1.2,3-2,4.5c-0.8,1.5-1.7,2.8-2.7,4c-1,1.2-2.2,2.1-3.4,2.8
			c-1.3,0.7-2.6,1.1-4.1,1.1c-0.8,0-1.6-0.1-2.3-0.3c-0.8-0.2-1.5-0.5-2.1-0.8c-0.7-0.4-1.2-0.8-1.7-1.3s-0.8-1-1.1-1.6
			C9.2,35.8,8.9,37,8.6,38c-0.3,1-0.5,1.9-0.7,2.7s-0.4,1.4-0.6,1.8C7.1,43,7,43.2,6.9,43.2c-0.2,0-0.3-0.4-0.5-1.2
			s-0.5-1.7-0.9-2.8s-1.1-2.3-1.9-3.5S1.6,33.5,0,32.6z M11.2,6c0.5,1.3,0.8,2.7,1.1,4c0.2,1.4,0.3,2.8,0.3,4.2
			c0,2.1-0.2,4.6-0.6,7.4c-0.4,2.8-0.9,5.6-1.4,8.3c0.5-0.6,1.1-1,1.8-1.2c0.7-0.3,1.5-0.4,2.3-0.4c0.3,0,0.7,0.1,1.3,0.2
			c0.5,0.1,1,0.3,1.5,0.6c0.5,0.3,0.9,0.7,1.2,1.1c0.4,0.5,0.5,1,0.5,1.7c0,0.6-0.2,1.2-0.6,1.8c-0.4,0.6-1,0.9-1.8,0.9
			c-0.1,0-0.3,0-0.4-0.1s-0.2-0.1-0.3-0.2c0.2-0.1,0.4-0.2,0.5-0.4s0.2-0.4,0.2-0.5c0-0.5-0.2-0.9-0.5-1.2s-0.6-0.4-0.9-0.4
			c-0.6,0-1.1,0.2-1.4,0.7c-0.3,0.4-0.5,0.9-0.5,1.5c0,0.5,0.1,0.9,0.4,1.2c0.2,0.4,0.6,0.7,1,0.9s0.8,0.4,1.3,0.6
			c0.5,0.1,1,0.2,1.5,0.2c1.4,0,2.7-0.5,3.7-1.5s2-2.3,2.7-3.9s1.3-3.6,1.6-5.8c0.4-2.2,0.6-4.5,0.6-6.9c0-3.2-0.3-5.7-0.8-7.6
			S24.2,7.9,23.3,7c-0.9-0.9-1.9-1.5-3.1-1.8c-1.3,0-2.5-0.2-3.7-0.2C14.7,5,12.9,5.4,11.2,6z"/>
	</g>
	<g>
		<path fill="#95908D" d="M57,34.3c0,0.8,0.2,1.4,0.5,1.7c0.4,0.4,0.7,0.6,1.2,0.8c0.4,0.2,0.8,0.3,1.2,0.4c0.4,0.1,0.5,0.2,0.5,0.4
			c0,0.3-0.3,0.4-0.8,0.5c-0.5,0-1.2,0.3-2.1,0.7c-0.6,0.4-1.1,0.7-1.5,1s-0.6,0.6-0.8,0.8s-0.3,0.4-0.5,0.6
			c-0.1,0.1-0.3,0.2-0.5,0.2c-0.3,0-0.5-0.2-0.5-0.7v-4.9c-0.4,0.6-0.9,1.1-1.5,1.5s-1.3,0.7-2,0.9s-1.4,0.4-2,0.5
			c-0.7,0.1-1.2,0.1-1.7,0.1c-0.7,0-1.5-0.1-2.4-0.3s-1.7-0.5-2.4-1s-1.4-1.1-1.9-1.9c-0.5-0.8-0.8-1.7-0.8-2.9V19.4
			c0-0.8-0.2-1.4-0.5-1.7c-0.4-0.4-0.8-0.6-1.2-0.8c-0.4-0.2-0.8-0.3-1.2-0.4s-0.5-0.2-0.5-0.4c0-0.1,0.1-0.2,0.2-0.3
			c0.1-0.1,0.3-0.1,0.6-0.2c0.2-0.1,0.5-0.1,0.9-0.2c0.4-0.1,0.8-0.3,1.2-0.5c0.6-0.4,1.1-0.7,1.5-1s0.6-0.6,0.8-0.9
			c0.2-0.2,0.4-0.4,0.5-0.6c0.1-0.1,0.3-0.2,0.5-0.2c0.3,0,0.5,0.3,0.5,0.8v18.9c0,0.7,0.2,1.3,0.5,1.8s0.7,0.8,1.2,1.1
			s0.9,0.5,1.5,0.6c0.5,0.1,1,0.2,1.4,0.2c1.3,0,2.3-0.1,3.1-0.2c0.8-0.1,1.4-0.3,1.9-0.6s0.8-0.6,1.1-1s0.5-0.8,0.8-1.3V19.2
			c0-1-0.2-1.7-0.7-2c-0.2-0.2-0.5-0.4-0.8-0.5s-0.6-0.2-0.9-0.2c-0.3-0.1-0.5-0.1-0.7-0.2s-0.3-0.2-0.3-0.4c0-0.2,0.2-0.4,0.5-0.4
			H60c0.3,0,0.5,0.1,0.5,0.4c0,0.2-0.1,0.3-0.3,0.4s-0.4,0.1-0.7,0.2s-0.6,0.1-0.9,0.2c-0.3,0.1-0.6,0.2-0.8,0.5
			c-0.5,0.4-0.7,1-0.7,2L57,34.3L57,34.3z"/>
	</g>
	<g>
		<path fill="#95908D" d="M68,22c0-0.8-0.2-1.4-0.5-1.7c-0.4-0.4-0.8-0.6-1.2-0.8c-0.4-0.2-0.8-0.3-1.2-0.4
			c-0.4-0.1-0.5-0.2-0.5-0.5c0-0.1,0.1-0.2,0.2-0.3c0.1,0,0.3-0.1,0.6-0.1c0.2-0.1,0.5-0.1,0.9-0.2s0.8-0.3,1.2-0.5
			c0.6-0.4,1.1-0.7,1.5-1s0.6-0.6,0.8-0.9c0.2-0.2,0.4-0.4,0.5-0.6c0.1-0.1,0.3-0.2,0.5-0.2c0.3,0,0.5,0.3,0.5,0.8v2.3
			c0.4-0.6,0.8-1.1,1.5-1.5c0.6-0.4,1.3-0.7,2-0.9s1.4-0.4,2-0.5c0.7-0.1,1.2-0.1,1.7-0.1c0.7,0,1.5,0.1,2.4,0.3s1.7,0.6,2.4,1
			c0.8,0.5,1.4,1.1,1.9,1.9S86,19.8,86,21v13.4c0,0.8,0.2,1.4,0.5,1.7c0.4,0.4,0.7,0.6,1.2,0.8c0.4,0.2,0.8,0.3,1.2,0.4
			c0.4,0.1,0.5,0.2,0.5,0.4c0,0.3-0.3,0.4-0.8,0.5c-0.5,0-1.2,0.3-2.1,0.7c-0.6,0.4-1.1,0.7-1.5,1s-0.6,0.6-0.8,0.8
			c-0.2,0.2-0.3,0.4-0.5,0.6c-0.1,0.1-0.3,0.2-0.5,0.2c-0.3,0-0.5-0.2-0.5-0.7v-19c0-0.7-0.2-1.3-0.5-1.8s-0.7-0.8-1.1-1.1
			c-0.4-0.3-0.9-0.5-1.4-0.6s-1-0.2-1.4-0.2c-0.5,0-1,0-1.5,0.1s-1,0.2-1.5,0.4c-0.5,0.2-0.8,0.4-1.1,0.7c-0.3,0.3-0.5,0.7-0.5,1.1
			c0,0.3,0.1,0.5,0.2,0.7c0.1,0.1,0.2,0.3,0.2,0.4s-0.2,0.2-0.5,0.2c-0.4,0-0.8-0.1-1.3-0.2c-0.5-0.2-0.8-0.5-1-1v14
			c0,1,0.2,1.7,0.7,2c0.2,0.2,0.5,0.4,0.8,0.5s0.6,0.2,0.9,0.2c0.3,0.1,0.5,0.1,0.7,0.2c0.2,0.1,0.3,0.2,0.3,0.4
			c0,0.3-0.2,0.4-0.5,0.4H65c-0.3,0-0.5-0.1-0.5-0.4c0-0.2,0.1-0.3,0.3-0.4c0.2-0.1,0.4-0.1,0.7-0.2c0.3-0.1,0.6-0.1,0.9-0.2
			s0.6-0.2,0.8-0.5c0.5-0.4,0.7-1,0.7-2L68,22L68,22z"/>
	</g>
	<g>
		<path fill="#95908D" d="M93.3,26.1c0-1.6,0.3-3.1,0.9-4.5s1.4-2.6,2.4-3.6s2.1-1.8,3.4-2.4s2.6-0.8,4-0.8c0.3,0,0.8,0,1.5,0.1
			s1.4,0.2,2.2,0.3c0.8,0.1,1.5,0.2,2.1,0.3c0.7,0.1,1.1,0.1,1.4,0.1c0.6,0,1.1-0.1,1.7-0.2c0.6-0.1,1.1-0.3,1.6-0.7
			c-0.2,0.8-0.6,1.5-1.1,2.3c-0.5,0.7-1.2,1.1-2.2,1.1c0.6,0.6,1.1,1.2,1.5,2s0.8,1.5,1,2.4c0.3,0.8,0.5,1.6,0.6,2.4
			s0.2,1.5,0.2,2.2c0,1.3-0.2,2.6-0.6,3.7s-0.8,2.1-1.3,3s-1,1.6-1.6,2.1c-0.6,0.6-1,1-1.4,1.2c1,0.5,1.7,0.9,2.4,1.4
			c0.6,0.4,1.1,1,1.5,1.6s0.6,1.3,0.8,2.2c0.1,0.9,0.2,2,0.2,3.3c0,0.6-0.1,1.3-0.4,2s-0.8,1.4-1.6,2c-0.8,0.6-1.9,1.2-3.2,1.6
			c-1.4,0.4-3.2,0.6-5.4,0.6c-2.2,0-4-0.1-5.4-0.3S96,51,95.2,50.7s-1.3-0.8-1.6-1.4c-0.3-0.6-0.4-1.3-0.4-2c0-1,0.1-1.8,0.4-2.4
			c0.3-0.6,0.6-1.1,1-1.5s0.9-0.6,1.4-0.7c0.5-0.1,1.1-0.2,1.6-0.2c0.4,0,0.7,0.2,1.2,0.5s0.6,0.8,0.6,1.4c0,0.4,0,0.7-0.1,0.9
			s-0.2,0.3-0.5,0.3c-0.1,0-0.2-0.1-0.3-0.2c0-0.1-0.1-0.2-0.2-0.3s-0.2-0.2-0.4-0.3c-0.2-0.1-0.5-0.2-0.8-0.2c-0.5,0-0.8,0.2-1,0.6
			c-0.2,0.4-0.3,0.9-0.3,1.4c0,0.9,0.7,1.5,2,1.7s3.4,0.3,6.1,0.3c1.6,0,2.8-0.1,3.8-0.3s1.7-0.5,2.2-0.8c0.5-0.4,0.9-0.8,1-1.3
			c0.2-0.5,0.3-1.1,0.3-1.7c0-0.7-0.2-1.4-0.6-2s-0.9-1.2-1.6-1.7s-1.5-0.9-2.5-1.2s-2.1-0.4-3.3-0.4c-1.7,0-3.1-0.3-4.4-1
			c-1.2-0.7-2.3-1.6-3.1-2.7c-0.8-1.1-1.5-2.3-1.9-3.7c-0.4-1.3-0.6-2.7-0.6-4v-1.7H93.3z M111.2,26.3c0-1.1-0.2-2.1-0.5-3.1
			s-0.8-1.8-1.4-2.6c-0.6-0.7-1.4-1.3-2.3-1.8c-0.9-0.4-1.9-0.7-3.1-0.7c-1.1,0-2.1,0.2-3.1,0.7c-0.9,0.4-1.7,1-2.3,1.8
			s-1.1,1.6-1.5,2.6c-0.3,1-0.5,2-0.5,3.1v1.1c0,1.2,0.1,2.2,0.4,3.2s0.7,1.8,1.3,2.5c0.6,0.7,1.3,1.3,2.3,1.7
			c0.9,0.4,2.1,0.6,3.4,0.6c1.1,0,2.1-0.2,3.1-0.7c0.9-0.4,1.7-1,2.3-1.8c0.6-0.7,1.1-1.6,1.4-2.6s0.5-2,0.5-3.1
			C111.2,27.2,111.2,26.3,111.2,26.3z"/>
	</g>
	<g>
		<path fill="#95908D" d="M122,28.1c0,0.8,0.2,1.7,0.5,2.5c0.3,0.9,0.7,1.7,1.3,2.4c0.5,0.7,1.2,1.3,2,1.8s1.7,0.7,2.7,0.7
			c0.8,0,1.4-0.1,2-0.2c0.5-0.1,1-0.3,1.4-0.5s0.7-0.4,1-0.7c0.2-0.2,0.4-0.4,0.5-0.6c0.2-0.2,0.3-0.5,0.4-0.8
			c0.1-0.3,0.2-0.4,0.3-0.4c0.3,0,0.6,0.1,0.9,0.4c0.3,0.3,0.6,0.5,0.9,0.6c0.2,0.1,0.5,0.2,0.8,0.3c0.4,0.1,0.6,0.3,0.6,0.6
			c0,0.1-0.1,0.2-0.2,0.4c-0.2,0.2-0.4,0.5-0.6,0.7c-0.2,0.3-0.5,0.6-0.8,0.8c-0.3,0.3-0.6,0.5-0.9,0.7c-0.7,0.5-1.5,1-2.4,1.4
			s-2.1,0.6-3.4,0.6c-1.7,0-3.2-0.3-4.5-0.9c-1.3-0.6-2.4-1.5-3.2-2.5c-0.8-1.1-1.5-2.4-1.9-3.9c-0.4-1.5-0.6-3.1-0.6-4.9
			c0-1.6,0.2-3.1,0.6-4.5c0.4-1.5,1-2.7,1.8-3.8c0.8-1.1,1.8-2,3.1-2.7c1.2-0.7,2.7-1,4.4-1c1.2,0,2.3,0.2,3.4,0.6
			c1.1,0.4,2,0.9,2.9,1.6c0.8,0.7,1.5,1.6,2,2.6s0.7,2.2,0.7,3.5c0,0.6,0,1.3-0.1,2s-0.1,1.3-0.1,1.8c0,0.6,0,1.1,0.1,1.7
			c0,0.5,0.1,1.1,0.3,1.7c-0.6-0.3-1-0.7-1.4-1.2s-0.6-1.1-0.7-1.7c-0.8,0.9-1.9,1.6-3,2.2c-1.2,0.6-2.5,0.9-3.9,0.9
			c-1.3,0-2.5-0.3-3.7-0.9s-2.2-1.4-2.9-2.5v1.2H122z M123,22.7c0,0.8,0.2,1.5,0.5,2c0.3,0.6,0.7,1,1.3,1.4c0.5,0.4,1.1,0.7,1.8,0.9
			c0.7,0.2,1.3,0.3,2,0.3c0.6,0,1.3-0.1,1.9-0.3c0.7-0.2,1.2-0.5,1.8-0.8c0.5-0.4,1-0.9,1.3-1.5c0.4-0.6,0.5-1.3,0.5-2.1
			c0-0.8-0.2-1.4-0.5-2s-0.8-1-1.3-1.4s-1.1-0.7-1.8-0.9c-0.7-0.2-1.3-0.3-1.9-0.3c-1.5,0-2.8,0.4-3.9,1.2
			C123.5,20,123,21.2,123,22.7z"/>
	</g>
	<g>
		<path fill="#95908D" d="M141.6,26.1c0-1.2,0.2-2.4,0.7-3.7c0.4-1.3,1.1-2.6,2-3.7s2-2.1,3.3-2.8s2.9-1.1,4.7-1.1s3.3,0.4,4.6,1.1
			c1.3,0.7,2.4,1.7,3.3,2.8c0.9,1.1,1.5,2.4,2,3.7c0.4,1.3,0.7,2.6,0.7,3.7v1.5c0,1.2-0.2,2.4-0.7,3.7c-0.4,1.3-1.1,2.6-2,3.7
			s-2,2.1-3.3,2.8s-2.9,1.1-4.6,1.1s-3.3-0.4-4.7-1.1c-1.3-0.7-2.5-1.7-3.3-2.8c-0.9-1.1-1.5-2.4-2-3.7c-0.4-1.3-0.7-2.6-0.7-3.7
			V26.1z M144.9,27.4c0,1.1,0.2,2.1,0.5,3.1s0.8,1.8,1.4,2.6c0.6,0.7,1.4,1.3,2.3,1.8s1.9,0.7,3.1,0.7c1.1,0,2.1-0.2,3.1-0.7
			s1.7-1,2.3-1.8c0.6-0.7,1.1-1.6,1.4-2.6c0.3-1,0.5-2,0.5-3.1v-1.1c0-1.1-0.2-2.1-0.5-3.1s-0.8-1.8-1.4-2.6
			c-0.6-0.7-1.4-1.3-2.3-1.8c-0.9-0.4-1.9-0.7-3.1-0.7c-1.2,0-2.2,0.2-3.1,0.7c-0.9,0.4-1.7,1-2.3,1.8c-0.6,0.7-1.1,1.6-1.4,2.6
			c-0.3,1-0.5,2-0.5,3.1V27.4z"/>
	</g>
	<g>
		<path fill="#95908D" d="M170.3,22c0-0.8-0.2-1.4-0.5-1.7c-0.4-0.4-0.8-0.6-1.2-0.8c-0.4-0.2-0.8-0.3-1.2-0.4s-0.5-0.2-0.5-0.5
			c0-0.1,0.1-0.2,0.2-0.3c0.1,0,0.3-0.1,0.6-0.1c0.2-0.1,0.5-0.1,0.9-0.2s0.8-0.3,1.2-0.5c0.6-0.4,1.1-0.7,1.5-1s0.6-0.6,0.8-0.9
			c0.2-0.2,0.4-0.4,0.5-0.6c0.1-0.1,0.3-0.2,0.5-0.2c0.3,0,0.5,0.3,0.5,0.8v2.3c0.4-0.6,0.8-1.1,1.5-1.5c0.6-0.4,1.3-0.7,2-0.9
			s1.4-0.4,2-0.5c0.7-0.1,1.2-0.1,1.7-0.1c0.7,0,1.5,0.1,2.4,0.3s1.7,0.6,2.4,1c0.8,0.5,1.4,1.1,1.9,1.9s0.8,1.7,0.8,2.9v13.4
			c0,0.8,0.2,1.4,0.5,1.7c0.4,0.4,0.7,0.6,1.2,0.8c0.4,0.2,0.8,0.3,1.2,0.4c0.4,0.1,0.5,0.2,0.5,0.4c0,0.3-0.3,0.4-0.8,0.5
			s-1.2,0.3-2.1,0.7c-0.6,0.4-1.1,0.7-1.5,1s-0.6,0.6-0.8,0.8s-0.3,0.4-0.5,0.6c-0.1,0.1-0.3,0.2-0.5,0.2c-0.3,0-0.5-0.2-0.5-0.7
			v-19c0-0.7-0.2-1.3-0.5-1.8s-0.7-0.8-1.1-1.1c-0.4-0.3-0.9-0.5-1.4-0.6s-1-0.2-1.4-0.2c-0.5,0-1,0-1.5,0.1s-1,0.2-1.5,0.4
			c-0.5,0.2-0.8,0.4-1.1,0.7c-0.3,0.3-0.5,0.7-0.5,1.1c0,0.3,0.1,0.5,0.2,0.7c0.1,0.1,0.2,0.3,0.2,0.4s-0.2,0.2-0.5,0.2
			c-0.4,0-0.8-0.1-1.3-0.2s-0.8-0.5-1-1v14c0,1,0.2,1.7,0.7,2c0.2,0.2,0.5,0.4,0.8,0.5s0.6,0.2,0.9,0.2s0.5,0.1,0.7,0.2
			c0.2,0.1,0.3,0.2,0.3,0.4c0,0.3-0.2,0.4-0.5,0.4h-9.1c-0.3,0-0.5-0.1-0.5-0.4c0-0.2,0.1-0.3,0.3-0.4c0.2-0.1,0.4-0.1,0.7-0.2
			c0.3-0.1,0.6-0.1,0.9-0.2c0.3-0.1,0.6-0.2,0.8-0.5c0.5-0.4,0.7-1,0.7-2L170.3,22L170.3,22z"/>
	</g>
	<g>
		<path fill="#95908D" d="M208.2,36.8c1.1-0.5,2.1-1.4,3.1-2.7c1-1.4,1.9-2.9,2.6-4.7s1.4-3.7,1.8-5.7c0.5-2,0.7-3.8,0.7-5.5
			c0-3.6-0.5-6.4-1.6-8.4c-1-2-2.4-3.6-4-4.7c1.4-0.2,2.4-0.8,3.2-1.8c0.7-1,1.1-2.1,1.1-3.3c0.5,0.6,1,1.5,1.5,2.7s0.9,2.6,1.3,4.1
			c0.4,1.6,0.7,3.2,0.9,5s0.3,3.6,0.3,5.4c0,0.9,0,2.1-0.1,3.5c0,1.4-0.1,3-0.2,4.6c-0.1,1.7-0.2,3.4-0.4,5.1
			c-0.2,1.8-0.4,3.5-0.7,5.1c1.3-0.8,2.7-1.4,4.2-1.8c1.5-0.4,3-0.6,4.5-0.6c1.6,0,2.9,0.1,3.9,0.3s1.9,0.5,2.5,0.8s1.1,0.5,1.5,0.8
			s0.7,0.3,1,0.3c0.2,0,0.4-0.1,0.6-0.4c0.2-0.2,0.5-0.5,0.8-0.8s0.5-0.6,0.8-0.8s0.5-0.4,0.7-0.4c0.4,0,0.6,0.2,0.6,0.5
			c0,0.2-0.2,0.5-0.5,0.8c-0.3,0.4-0.8,0.8-1.2,1.4c-0.5,0.6-1,1.4-1.6,2.3c-0.6,1-1.1,2.1-1.5,3.6c-0.9-1.2-1.8-2.2-2.8-2.9
			c-0.9-0.7-1.8-1.2-2.7-1.6c-0.8-0.4-1.7-0.6-2.4-0.7c-0.8-0.1-1.5-0.2-2.2-0.2c-1,0-2,0.1-3.1,0.3s-2.3,0.7-3.6,1.5
			c-0.4,1.7-0.8,3-1.1,4s-0.6,1.8-0.8,2.3c-0.2,0.6-0.4,0.9-0.6,1.1c-0.2,0.2-0.3,0.3-0.4,0.3c-0.1,0-0.2-0.3-0.3-0.9
			c-0.1-0.6-0.3-1.4-0.6-2.3c-0.4-0.9-0.9-1.9-1.7-2.9C210.9,38.6,209.8,37.7,208.2,36.8z"/>
	</g>
	<g>
		<path fill="#95908D" d="M243.7,26.1c0-1.2,0.2-2.4,0.7-3.7c0.4-1.3,1.1-2.6,2-3.7s2-2.1,3.3-2.8s2.9-1.1,4.7-1.1
			c1.8,0,3.3,0.4,4.6,1.1c1.3,0.7,2.4,1.7,3.3,2.8s1.5,2.4,2,3.7c0.4,1.3,0.7,2.6,0.7,3.7v1.5c0,1.2-0.2,2.4-0.7,3.7
			c-0.4,1.3-1.1,2.6-2,3.7s-2,2.1-3.3,2.8s-2.9,1.1-4.6,1.1s-3.3-0.4-4.7-1.1c-1.3-0.7-2.5-1.7-3.3-2.8c-0.9-1.1-1.5-2.4-2-3.7
			c-0.4-1.3-0.7-2.6-0.7-3.7V26.1z M247,27.4c0,1.1,0.2,2.1,0.5,3.1s0.8,1.8,1.4,2.6c0.6,0.7,1.4,1.3,2.3,1.8
			c0.9,0.4,1.9,0.7,3.1,0.7c1.1,0,2.1-0.2,3.1-0.7c0.9-0.4,1.7-1,2.3-1.8c0.6-0.7,1.1-1.6,1.4-2.6s0.5-2,0.5-3.1v-1.1
			c0-1.1-0.2-2.1-0.5-3.1s-0.8-1.8-1.4-2.6c-0.6-0.7-1.4-1.3-2.3-1.8c-0.9-0.4-1.9-0.7-3.1-0.7c-1.2,0-2.2,0.2-3.1,0.7
			c-0.9,0.4-1.7,1-2.3,1.8c-0.6,0.7-1.1,1.6-1.4,2.6c-0.3,1-0.5,2-0.5,3.1L247,27.4L247,27.4z"/>
	</g>
	<g>
		<path fill="#95908D" d="M268.9,26.1c0-1.6,0.3-3.1,0.9-4.5s1.4-2.6,2.4-3.6s2.1-1.8,3.4-2.4s2.6-0.8,4-0.8c0.3,0,0.8,0,1.5,0.1
			s1.4,0.2,2.2,0.3s1.5,0.2,2.1,0.3c0.7,0.1,1.1,0.1,1.4,0.1c0.6,0,1.1-0.1,1.7-0.2c0.6-0.1,1.1-0.3,1.6-0.7
			c-0.2,0.8-0.6,1.5-1.1,2.3c-0.5,0.7-1.2,1.1-2.2,1.1c0.6,0.6,1.1,1.2,1.5,2s0.8,1.5,1,2.4s0.5,1.6,0.6,2.4s0.2,1.5,0.2,2.2
			c0,1.3-0.2,2.6-0.6,3.7s-0.8,2.1-1.3,3s-1,1.6-1.6,2.1c-0.6,0.6-1,1-1.4,1.2c1,0.5,1.7,0.9,2.4,1.4c0.6,0.4,1.1,1,1.5,1.6
			s0.6,1.3,0.8,2.2s0.2,2,0.2,3.3c0,0.6-0.1,1.3-0.4,2s-0.8,1.4-1.6,2c-0.8,0.6-1.9,1.2-3.2,1.6c-1.4,0.4-3.2,0.6-5.4,0.6
			c-2.2,0-4-0.1-5.4-0.3s-2.5-0.5-3.3-0.8c-0.8-0.4-1.3-0.8-1.6-1.4c-0.3-0.6-0.4-1.3-0.4-2c0-1,0.1-1.8,0.4-2.4
			c0.3-0.6,0.6-1.1,1-1.5s0.9-0.6,1.4-0.7c0.5-0.1,1.1-0.2,1.6-0.2c0.4,0,0.7,0.2,1.2,0.5s0.6,0.8,0.6,1.4c0,0.4,0,0.7-0.1,0.9
			s-0.2,0.3-0.5,0.3c-0.1,0-0.2-0.1-0.3-0.2s-0.1-0.2-0.2-0.3s-0.2-0.2-0.4-0.3c-0.2-0.1-0.5-0.2-0.8-0.2c-0.5,0-0.8,0.2-1,0.6
			c-0.2,0.4-0.3,0.9-0.3,1.4c0,0.9,0.7,1.5,2,1.7s3.4,0.3,6.1,0.3c1.6,0,2.8-0.1,3.8-0.3s1.7-0.5,2.2-0.8c0.5-0.4,0.9-0.8,1-1.3
			c0.2-0.5,0.3-1.1,0.3-1.7c0-0.7-0.2-1.4-0.6-2s-0.9-1.2-1.6-1.7s-1.5-0.9-2.5-1.2s-2.1-0.4-3.3-0.4c-1.7,0-3.1-0.3-4.3-1
			c-1.2-0.7-2.3-1.6-3.1-2.7c-0.8-1.1-1.5-2.3-1.9-3.7c-0.4-1.3-0.6-2.7-0.6-4L268.9,26.1L268.9,26.1z M286.8,26.3
			c0-1.1-0.2-2.1-0.5-3.1s-0.8-1.8-1.4-2.6c-0.6-0.7-1.4-1.3-2.3-1.8c-0.9-0.4-1.9-0.7-3-0.7s-2.1,0.2-3.1,0.7
			c-0.9,0.4-1.7,1-2.3,1.8s-1.1,1.6-1.5,2.6c-0.3,1-0.5,2-0.5,3.1v1.1c0,1.2,0.1,2.2,0.4,3.2s0.7,1.8,1.3,2.5
			c0.6,0.7,1.3,1.3,2.3,1.7c0.9,0.4,2.1,0.6,3.4,0.6c1.1,0,2.1-0.2,3-0.7c0.9-0.4,1.7-1,2.3-1.8c0.6-0.7,1.1-1.6,1.4-2.6
			s0.5-2,0.5-3.1L286.8,26.3L286.8,26.3z"/>
	</g>
	<g>
		<path fill="#95908D" d="M297.8,22c0-0.8-0.2-1.4-0.5-1.7c-0.4-0.4-0.8-0.6-1.2-0.8c-0.4-0.2-0.8-0.3-1.2-0.4
			c-0.4-0.1-0.5-0.2-0.5-0.5c0-0.1,0.1-0.2,0.2-0.3c0.1,0,0.3-0.1,0.6-0.1c0.2-0.1,0.5-0.1,0.9-0.2s0.8-0.3,1.2-0.5
			c0.6-0.4,1.1-0.7,1.5-1s0.6-0.6,0.8-0.9c0.2-0.2,0.4-0.4,0.5-0.6c0.1-0.1,0.3-0.2,0.5-0.2c0.3,0,0.5,0.3,0.5,0.8v18.9
			c0,1,0.2,1.7,0.7,2c0.2,0.2,0.5,0.4,0.8,0.5s0.6,0.2,0.9,0.2s0.5,0.1,0.7,0.2c0.2,0.1,0.3,0.2,0.3,0.4c0,0.3-0.2,0.4-0.5,0.4h-9.1
			c-0.3,0-0.5-0.1-0.5-0.4c0-0.2,0.1-0.3,0.3-0.4c0.2-0.1,0.4-0.1,0.7-0.2c0.3-0.1,0.6-0.1,0.9-0.2s0.6-0.2,0.8-0.5
			c0.5-0.4,0.7-1,0.7-2L297.8,22L297.8,22z M296.7,10.8c0-0.6,0.2-1.1,0.6-1.5s0.9-0.6,1.5-0.6s1.1,0.2,1.6,0.6
			c0.4,0.4,0.7,0.9,0.7,1.5s-0.2,1.1-0.7,1.6c-0.4,0.4-1,0.7-1.6,0.7s-1.1-0.2-1.5-0.7C296.9,11.9,296.7,11.4,296.7,10.8z"/>
	</g>
	<g>
		<path fill="#95908D" d="M308.4,26.1c0-1.2,0.2-2.4,0.7-3.7c0.4-1.3,1.1-2.6,2-3.7s2-2.1,3.3-2.8s2.9-1.1,4.7-1.1
			c0.8,0,1.6,0.1,2.1,0.2c0.6,0.2,1.1,0.3,1.6,0.6c0.5,0.2,0.9,0.4,1.4,0.6c0.4,0.2,0.9,0.2,1.5,0.2c0.2,0,0.5,0,0.6-0.1
			c0.2-0.1,0.3-0.2,0.4-0.3c0.1-0.1,0.2-0.2,0.3-0.3c0.1-0.1,0.2-0.1,0.3-0.1c0.2,0,0.4,0.1,0.4,0.4c0,0.2-0.2,0.6-0.6,1.1
			c-0.4,0.6-0.7,1.2-1,2c-0.4,1-0.7,1.9-1,2.7c-0.3,0.9-0.5,1.3-0.8,1.3c-0.2,0-0.3-0.3-0.5-0.8c-0.1-0.5-0.4-1.1-0.7-1.7
			c-0.3-0.6-0.8-1.2-1.4-1.7s-1.6-0.8-2.8-0.8c-1.2,0-2.2,0.2-3.1,0.7c-0.9,0.4-1.7,1-2.3,1.8c-0.6,0.7-1.1,1.6-1.4,2.6
			s-0.5,2-0.5,3.1v1.1c0,1.1,0.2,2.1,0.5,3.1s0.8,1.8,1.4,2.6c0.6,0.7,1.4,1.3,2.3,1.8c0.9,0.4,1.9,0.7,3.1,0.7
			c1.7,0,3.1-0.4,4.2-1.2s1.7-1.8,1.7-3.1c0-0.5-0.1-0.8-0.4-0.9c-0.2-0.1-0.4-0.3-0.4-0.6c0-0.1,0.1-0.2,0.4-0.3
			c0.3-0.1,0.5-0.1,0.5-0.1c0.7,0,1.2,0.3,1.7,0.8c0.5,0.6,0.7,1.3,0.7,2.1s-0.2,1.6-0.6,2.4c-0.4,0.8-1,1.5-1.8,2.1
			c-0.7,0.6-1.6,1.2-2.7,1.5s-2.2,0.6-3.4,0.6c-1.8,0-3.3-0.4-4.7-1.1c-1.3-0.7-2.5-1.7-3.3-2.8c-0.9-1.1-1.5-2.4-2-3.7
			c-0.4-1.3-0.7-2.6-0.7-3.7v-1.5H308.4z"/>
	</g>
</g>
</svg>
